<?xml version="1.0" standalone="no"?>
 <!DOCTYPE svg PUBLIC "-//W3C//DTD SVG 1.1//EN" 
 "http://www.w3.org/Graphics/SVG/1.1/DTD/svg11.dtd"> 
<svg xmlns="http://www.w3.org/2000/svg" version="1.1" 
    width="29.7002cm" height="21.0007cm" viewBox="0 0 116930 82680 ">
<title>SVG Picture created as baconbits-F.SilkS.svg date 2018/02/14 18:51:24 </title>
  <desc>Picture generated by PCBNEW </desc>
<g style="fill:#000000; fill-opacity:1;stroke:#000000; stroke-opacity:1;
stroke-linecap:round; stroke-linejoin:round; "
 transform="translate(0 0) scale(1 1)">
</g>
<g style="fill:#000000; fill-opacity:0.0; 
stroke:#000000; stroke-width:-0.000393701; stroke-opacity:1; 
stroke-linecap:round; stroke-linejoin:round;">
</g>
<g style="fill:#000000; fill-opacity:0.0; 
stroke:#000000; stroke-width:100; stroke-opacity:1; 
stroke-linecap:round; stroke-linejoin:round;">
<path d="M60430 37285
L60430 37609
L60449 37647
L60468 37666
L60506 37685
L60582 37685
L60620 37666
L60639 37647
L60658 37609
L60658 37285
" />
<path d="M60830 37666
L60887 37685
L60982 37685
L61020 37666
L61039 37647
L61058 37609
L61058 37571
L61039 37533
L61020 37514
L60982 37495
L60906 37476
L60868 37457
L60849 37438
L60830 37400
L60830 37362
L60849 37324
L60868 37305
L60906 37285
L61001 37285
L61058 37305
" />
<path d="M61458 37685
L61325 37495
" />
<path d="M61230 37685
L61230 37285
L61382 37285
L61420 37305
L61439 37324
L61458 37362
L61458 37419
L61439 37457
L61420 37476
L61382 37495
L61230 37495
" />
<path d="M64145 37695
L64012 37505
" />
<path d="M63917 37695
L63917 37295
L64069 37295
L64107 37315
L64126 37334
L64145 37372
L64145 37429
L64126 37467
L64107 37486
L64069 37505
L63917 37505
" />
<path d="M64298 37676
L64355 37695
L64450 37695
L64488 37676
L64507 37657
L64526 37619
L64526 37581
L64507 37543
L64488 37524
L64450 37505
L64374 37486
L64336 37467
L64317 37448
L64298 37410
L64298 37372
L64317 37334
L64336 37315
L64374 37295
L64469 37295
L64526 37315
" />
<path d="M64641 37295
L64869 37295
" />
<path d="M64755 37695
L64755 37295
" />
<path d="M62071 37685
L62071 37285
L62224 37285
L62262 37305
L62281 37324
L62300 37362
L62300 37419
L62281 37457
L62262 37476
L62224 37495
L62071 37495
" />
<path d="M62433 37285
L62528 37685
L62605 37400
L62681 37685
L62776 37285
" />
<path d="M63157 37685
L63024 37495
" />
<path d="M62928 37685
L62928 37285
L63081 37285
L63119 37305
L63138 37324
L63157 37362
L63157 37419
L63138 37457
L63119 37476
L63081 37495
L62928 37495
" />
</g>
<g style="fill:#000000; fill-opacity:0.0; 
stroke:#000000; stroke-width:78.7402; stroke-opacity:1; 
stroke-linecap:round; stroke-linejoin:round;">
<path d="M58305 38445
L58305 39115
" />
<path d="M58305 40175
L58305 40845
" />
<path d="M58305 41835
L58305 42505
" />
<path d="M58305 43565
L58305 44235
" />
<path d="M57495 40175
L57495 39115
" />
<path d="M56905 40175
L56905 39115
" />
<path d="M56905 40845
L56905 40175
" />
<path d="M59695 39115
L56905 39115
" />
<path d="M59695 40175
L59695 39115
" />
<path d="M56905 39115
L56905 38445
" />
<path d="M59695 38445
L59695 39115
" />
<path d="M58595 40175
L58595 39115
" />
<path d="M59695 40175
L59695 40845
" />
<path d="M56905 38445
L59695 38445
" />
<path d="M59695 40845
L56905 40845
" />
<path d="M59105 40175
L59105 39115
" />
<path d="M58005 40175
L58005 39115
" />
<path d="M56905 40175
L59695 40175
" />
<path d="M59695 43565
L59695 42505
" />
<path d="M59105 43565
L59105 42505
" />
<path d="M58595 43565
L58595 42505
" />
<path d="M58005 43565
L58005 42505
" />
<path d="M57495 43565
L57495 42505
" />
<path d="M56905 43565
L56905 42505
" />
<path d="M56905 42505
L56905 41835
" />
<path d="M59695 41835
L59695 42505
" />
<path d="M59695 42505
L56905 42505
" />
<path d="M56905 41835
L59695 41835
" />
<path d="M56905 44235
L56905 43565
" />
<path d="M59695 44235
L56905 44235
" />
<path d="M59695 43565
L59695 44235
" />
<path d="M56905 43565
L59695 43565
" />
</g>
<g style="fill:#000000; fill-opacity:0.0; 
stroke:#000000; stroke-width:118.11; stroke-opacity:1; 
stroke-linecap:round; stroke-linejoin:round;">
<path d="M56779 35084
L56723 35112
L56610 35112
L56554 35084
L56526 35027
L56526 34802
L56554 34746
L56610 34718
L56723 34718
L56779 34746
L56807 34802
L56807 34859
L56526 34915
" />
<path d="M57060 34887
L57510 34887
" />
<path d="M58044 35112
L58044 34802
L58016 34746
L57960 34718
L57847 34718
L57791 34746
" />
<path d="M58044 35084
L57988 35112
L57847 35112
L57791 35084
L57763 35027
L57763 34971
L57791 34915
L57847 34887
L57988 34887
L58044 34859
" />
<path d="M58410 35112
L58354 35084
L58325 35027
L58325 34521
" />
<path d="M58860 35084
L58804 35112
L58691 35112
L58635 35084
L58607 35027
L58607 34802
L58635 34746
L58691 34718
L58804 34718
L58860 34746
L58888 34802
L58888 34859
L58607 34915
" />
<path d="M59141 35055
L59169 35084
L59141 35112
L59113 35084
L59141 35055
L59141 35112
" />
<path d="M59507 35112
L59450 35084
L59422 35055
L59394 34999
L59394 34830
L59422 34774
L59450 34746
L59507 34718
L59591 34718
L59647 34746
L59675 34774
L59703 34830
L59703 34999
L59675 35055
L59647 35084
L59591 35112
L59507 35112
" />
<path d="M59957 35112
L59957 34718
" />
<path d="M59957 34830
L59985 34774
L60013 34746
L60069 34718
L60125 34718
" />
<path d="M60575 34718
L60575 35196
L60547 35252
L60519 35280
L60463 35309
L60378 35309
L60322 35280
" />
<path d="M60575 35084
L60519 35112
L60406 35112
L60350 35084
L60322 35055
L60294 34999
L60294 34830
L60322 34774
L60350 34746
L60406 34718
L60519 34718
L60575 34746
" />
<path d="M55206 47656
L55291 47684
L55319 47713
L55347 47769
L55347 47853
L55319 47909
L55291 47938
L55234 47966
L55010 47966
L55010 47375
L55206 47375
L55263 47403
L55291 47431
L55319 47488
L55319 47544
L55291 47600
L55263 47628
L55206 47656
L55010 47656
" />
<path d="M55853 47966
L55853 47656
L55825 47600
L55769 47572
L55656 47572
L55600 47600
" />
<path d="M55853 47938
L55797 47966
L55656 47966
L55600 47938
L55572 47881
L55572 47825
L55600 47769
L55656 47741
L55797 47741
L55853 47713
" />
<path d="M56387 47938
L56331 47966
L56219 47966
L56163 47938
L56134 47909
L56106 47853
L56106 47684
L56134 47628
L56163 47600
L56219 47572
L56331 47572
L56387 47600
" />
<path d="M56725 47966
L56669 47938
L56641 47909
L56612 47853
L56612 47684
L56641 47628
L56669 47600
L56725 47572
L56809 47572
L56866 47600
L56894 47628
L56922 47684
L56922 47853
L56894 47909
L56866 47938
L56809 47966
L56725 47966
" />
<path d="M57175 47572
L57175 47966
" />
<path d="M57175 47628
L57203 47600
L57259 47572
L57344 47572
L57400 47600
L57428 47656
L57428 47966
" />
<path d="M57906 47656
L57990 47684
L58019 47713
L58047 47769
L58047 47853
L58019 47909
L57990 47938
L57934 47966
L57709 47966
L57709 47375
L57906 47375
L57962 47403
L57990 47431
L58019 47488
L58019 47544
L57990 47600
L57962 47628
L57906 47656
L57709 47656
" />
<path d="M58300 47966
L58300 47572
" />
<path d="M58300 47375
L58272 47403
L58300 47431
L58328 47403
L58300 47375
L58300 47431
" />
<path d="M58497 47572
L58722 47572
" />
<path d="M58581 47375
L58581 47881
L58609 47938
L58665 47966
L58722 47966
" />
<path d="M58890 47938
L58947 47966
L59059 47966
L59115 47938
L59143 47881
L59143 47853
L59115 47797
L59059 47769
L58975 47769
L58918 47741
L58890 47684
L58890 47656
L58918 47600
L58975 47572
L59059 47572
L59115 47600
" />
<path d="M60184 47966
L59987 47684
" />
<path d="M59846 47966
L59846 47375
L60071 47375
L60128 47403
L60156 47431
L60184 47488
L60184 47572
L60156 47628
L60128 47656
L60071 47684
L59846 47684
" />
<path d="M60662 47938
L60606 47966
L60493 47966
L60437 47938
L60409 47881
L60409 47656
L60437 47600
L60493 47572
L60606 47572
L60662 47600
L60690 47656
L60690 47713
L60409 47769
" />
<path d="M60887 47572
L61028 47966
L61168 47572
" />
<path d="M61393 47909
L61421 47938
L61393 47966
L61365 47938
L61393 47909
L61393 47966
" />
<path d="M62434 47966
L62096 47966
" />
<path d="M62265 47966
L62265 47375
L62209 47459
L62152 47516
L62096 47544
" />
</g>
<g style="fill:#000000; fill-opacity:0.0; 
stroke:#000000; stroke-width:38.4; stroke-opacity:1; 
stroke-linecap:round; stroke-linejoin:round;">
<path d="M67415 46736
L67603 46736
L67502 46852
L67545 46852
L67574 46866
L67589 46881
L67603 46910
L67603 46982
L67589 47011
L67574 47026
L67545 47040
L67458 47040
L67429 47026
L67415 47011
" />
<path d="M67878 46736
L67733 46736
L67719 46881
L67733 46866
L67762 46852
L67835 46852
L67864 46866
L67878 46881
L67893 46910
L67893 46982
L67878 47011
L67864 47026
L67835 47040
L67762 47040
L67733 47026
L67719 47011
" />
<path d="M49205 45679
L49219 45665
L49248 45650
L49320 45650
L49349 45665
L49364 45679
L49378 45708
L49378 45737
L49364 45780
L49190 45954
L49378 45954
" />
<path d="M49354 46979
L49181 46979
" />
<path d="M49268 46979
L49268 46675
L49239 46718
L49210 46747
L49181 46762
" />
<path d="M49394 37005
L49221 37005
" />
<path d="M49308 37005
L49308 36701
L49279 36744
L49250 36773
L49221 36788
" />
<path d="M49245 35705
L49259 35691
L49288 35676
L49360 35676
L49389 35691
L49404 35705
L49418 35734
L49418 35763
L49404 35806
L49230 35980
L49418 35980
" />
<path d="M67408 35683
L67596 35683
L67495 35799
L67538 35799
L67567 35813
L67582 35828
L67596 35857
L67596 35929
L67582 35958
L67567 35973
L67538 35987
L67451 35987
L67422 35973
L67408 35958
" />
<path d="M67857 35683
L67799 35683
L67770 35698
L67755 35712
L67726 35755
L67712 35813
L67712 35929
L67726 35958
L67741 35973
L67770 35987
L67828 35987
L67857 35973
L67871 35958
L67886 35929
L67886 35857
L67871 35828
L67857 35813
L67828 35799
L67770 35799
L67741 35813
L67726 35828
L67712 35857
" />
<path d="M67438 36673
L67626 36673
L67525 36789
L67568 36789
L67597 36803
L67612 36818
L67626 36847
L67626 36919
L67612 36948
L67597 36963
L67568 36977
L67481 36977
L67452 36963
L67438 36948
" />
<path d="M67901 36673
L67756 36673
L67742 36818
L67756 36803
L67785 36789
L67858 36789
L67887 36803
L67901 36818
L67916 36847
L67916 36919
L67901 36948
L67887 36963
L67858 36977
L67785 36977
L67756 36963
L67742 36948
" />
<path d="M67448 45673
L67636 45673
L67535 45789
L67578 45789
L67607 45803
L67622 45818
L67636 45847
L67636 45919
L67622 45948
L67607 45963
L67578 45977
L67491 45977
L67462 45963
L67448 45948
" />
<path d="M67897 45673
L67839 45673
L67810 45688
L67795 45702
L67766 45745
L67752 45803
L67752 45919
L67766 45948
L67781 45963
L67810 45977
L67868 45977
L67897 45963
L67911 45948
L67926 45919
L67926 45847
L67911 45818
L67897 45803
L67868 45789
L67810 45789
L67781 45803
L67766 45818
L67752 45847
" />
</g>
<g style="fill:#000000; fill-opacity:0.0; 
stroke:#000000; stroke-width:59.0551; stroke-opacity:1; 
stroke-linecap:round; stroke-linejoin:round;">
<path d="M58611 44530
L58218 44530
" />
<path d="M58218 45199
L58611 45199
" />
</g>
<g style="fill:#000000; fill-opacity:0.0; 
stroke:#000000; stroke-width:47.2441; stroke-opacity:1; 
stroke-linecap:round; stroke-linejoin:round;">
<path d="M55600 44868
L56309 44868
" />
<path d="M56309 43601
L55344 43601
" />
</g>
<g style="fill:#000000; fill-opacity:0.0; 
stroke:#000000; stroke-width:59.0551; stroke-opacity:1; 
stroke-linecap:round; stroke-linejoin:round;">
<path d="M60152 42593
L60510 42593
" />
<path d="M62277 42514
L62277 39995
" />
<path d="M60152 39995
L60152 42593
" />
</g>
<g style="fill:#000000; fill-opacity:0.0; 
stroke:#000000; stroke-width:80; stroke-opacity:1; 
stroke-linecap:round; stroke-linejoin:round;">
<circle cx="62634" cy="38779" r="273" /> 
<path d="M63224 39704
L63224 37854
" />
<path d="M62044 39704
L62044 37854
" />
<path d="M62653 37854
L62615 37854
" />
<path d="M62653 39704
L62615 39704
" />
<path d="M64403 39704
L64365 39704
" />
<path d="M64403 37854
L64365 37854
" />
<path d="M63794 39704
L63794 37854
" />
<path d="M64974 39704
L64974 37854
" />
<circle cx="64384" cy="38779" r="273" /> 
</g>
<g style="fill:#000000; fill-opacity:0.0; 
stroke:#000000; stroke-width:59.0551; stroke-opacity:1; 
stroke-linecap:round; stroke-linejoin:round;">
<path d="M62767 40244
L62895 40244
" />
<path d="M64046 41523
L63918 41523
" />
<path d="M64046 40244
L63918 40244
" />
<path d="M62767 41523
L62767 41326
" />
<path d="M64046 41523
L64046 41326
" />
<path d="M64046 40244
L64046 40441
" />
<path d="M62767 40244
L62767 40441
" />
</g>
<g style="fill:#000000; fill-opacity:0.0; 
stroke:#000000; stroke-width:60; stroke-opacity:1; 
stroke-linecap:round; stroke-linejoin:round;">
<path d="M67750 39100
L67750 37450
" />
<path d="M67600 39100
L67750 39100
" />
<path d="M67600 39350
L67600 39100
" />
<path d="M67750 39350
L67600 39350
" />
<path d="M67750 41050
L67750 39350
" />
<path d="M68000 39350
L68000 41000
" />
<path d="M68150 39350
L68000 39350
" />
<path d="M68150 39100
L68150 39350
" />
<path d="M68000 39100
L68150 39100
" />
<path d="M68000 37500
L68000 39100
" />
<path d="M67750 37650
L67750 37650
" />
<path d="M69400 39250
L69400 39250
" />
<path d="M69150 39500
L69400 39250
" />
<path d="M69150 39000
L69150 39500
" />
<path d="M69400 39250
L69150 39000
" />
<path d="M66800 40750 A1802.78 1802.78 0.0 1 0 66800 37750 " />
<path d="M65800 40750
L66800 40750
" />
<path d="M65800 37750
L65800 40750
" />
<path d="M66800 37750
L65800 37750
" />
</g>
<g style="fill:#000000; fill-opacity:0.0; 
stroke:#000000; stroke-width:59.0551; stroke-opacity:1; 
stroke-linecap:round; stroke-linejoin:round;">
<path d="M52522 44491
L46972 44491
" />
<path d="M46972 38591
L52522 38591
" />
<path d="M52522 44491
L52522 38591
" />
<path d="M46972 44491
L46972 38591
" />
<path d="M63688 41872
L63491 41872
" />
<path d="M63491 42247
L63688 42247
" />
<path d="M66775 43912
L66578 43912
" />
<path d="M66578 44287
L66775 44287
" />
<path d="M63537 43131
L63537 42935
" />
<path d="M63162 42935
L63162 43131
" />
<path d="M64698 44712
L64501 44712
" />
<path d="M64501 45087
L64698 45087
" />
<path d="M55062 44033
L55062 43836
" />
<path d="M54687 43836
L54687 44033
" />
<path d="M63162 44271
L63162 44468
" />
<path d="M63537 44468
L63537 44271
" />
<path d="M63002 42293
L63002 42096
" />
<path d="M62627 42096
L62627 42293
" />
<path d="M63957 44346
L63957 44041
" />
<path d="M65650 42653
L65650 42958
" />
<path d="M63957 42653
L63957 42958
" />
<path d="M65650 44346
L65345 44346
" />
<path d="M65650 42653
L65345 42653
" />
<path d="M63957 42653
L64262 42653
" />
<path d="M63957 44346
L64262 44346
" />
<path d="M59333 38583
L58585 38583
" />
<path d="M59333 39016
L58585 39016
" />
<path d="M58978 38800
L58801 38800
" />
<path d="M58998 38898
L58998 38701
" />
<path d="M58998 38800
L58900 38898
" />
<path d="M58900 38898
L58900 38701
" />
<path d="M58900 38701
L58998 38800
" />
</g>
<g style="fill:#000000; fill-opacity:0.0; 
stroke:#000000; stroke-width:100; stroke-opacity:1; 
stroke-linecap:round; stroke-linejoin:round;">
<path d="M60672 42938
L60672 42952
" />
<path d="M61458 42938
L61458 42952
" />
<path d="M56512 40973
L56526 40973
" />
<path d="M56512 41759
L56526 41759
" />
<path d="M54906 42603
L54906 42617
" />
<path d="M55692 42603
L55692 42617
" />
<path d="M54225 39707
L54225 39693
" />
<path d="M55011 39707
L55011 39693
" />
<path d="M55959 39707
L55959 39693
" />
<path d="M55173 39707
L55173 39693
" />
</g>
<g style="fill:#000000; fill-opacity:0.0; 
stroke:#000000; stroke-width:59.0551; stroke-opacity:1; 
stroke-linecap:round; stroke-linejoin:round;">
<path d="M53553 39983
L53553 40180
" />
<path d="M53928 40180
L53928 39983
" />
<path d="M55940 42023
L55734 42023
" />
<path d="M54248 40330
L54454 40330
" />
<path d="M54248 42023
L54454 42023
" />
<path d="M55940 40330
L55940 40537
" />
<path d="M54248 40330
L54248 40537
" />
<path d="M54248 42023
L54248 41816
" />
<path d="M55940 42023
L55940 41816
" />
<path d="M59301 43039
L59400 42940
" />
<path d="M59498 43039
L59301 43039
" />
<path d="M59400 42940
L59498 43039
" />
<path d="M59498 42940
L59301 42940
" />
<path d="M59400 42960
L59400 43137
" />
<path d="M59616 42606
L59616 43354
" />
<path d="M59183 42606
L59183 43354
" />
<path d="M59333 43683
L58585 43683
" />
<path d="M59333 44116
L58585 44116
" />
<path d="M58978 43900
L58801 43900
" />
<path d="M58998 43998
L58998 43801
" />
<path d="M58998 43900
L58900 43998
" />
<path d="M58900 43998
L58900 43801
" />
<path d="M58900 43801
L58998 43900
" />
<path d="M58201 43035
L58300 42937
" />
<path d="M58398 43035
L58201 43035
" />
<path d="M58300 42937
L58398 43035
" />
<path d="M58398 42937
L58201 42937
" />
<path d="M58300 42956
L58300 43133
" />
<path d="M58516 42602
L58516 43350
" />
<path d="M58083 42602
L58083 43350
" />
<path d="M58128 41960
L57380 41960
" />
<path d="M58128 42393
L57380 42393
" />
<path d="M57773 42177
L57596 42177
" />
<path d="M57793 42275
L57793 42078
" />
<path d="M57793 42177
L57695 42275
" />
<path d="M57695 42275
L57695 42078
" />
<path d="M57695 42078
L57793 42177
" />
<path d="M58895 42086
L58993 42185
" />
<path d="M58895 42283
L58895 42086
" />
<path d="M58993 42185
L58895 42283
" />
<path d="M58993 42283
L58993 42086
" />
<path d="M58973 42185
L58796 42185
" />
<path d="M59328 42401
L58580 42401
" />
<path d="M59328 41968
L58580 41968
" />
<path d="M58133 40283
L57385 40283
" />
<path d="M58133 40716
L57385 40716
" />
<path d="M57778 40500
L57601 40500
" />
<path d="M57798 40598
L57798 40401
" />
<path d="M57798 40500
L57700 40598
" />
<path d="M57700 40598
L57700 40401
" />
<path d="M57700 40401
L57798 40500
" />
<path d="M58900 40401
L58998 40500
" />
<path d="M58900 40598
L58900 40401
" />
<path d="M58998 40500
L58900 40598
" />
<path d="M58998 40598
L58998 40401
" />
<path d="M58978 40500
L58801 40500
" />
<path d="M59333 40716
L58585 40716
" />
<path d="M59333 40283
L58585 40283
" />
<path d="M56983 39216
L56983 39964
" />
<path d="M57416 39216
L57416 39964
" />
<path d="M57200 39571
L57200 39748
" />
<path d="M57298 39551
L57101 39551
" />
<path d="M57200 39551
L57298 39650
" />
<path d="M57298 39650
L57101 39650
" />
<path d="M57101 39650
L57200 39551
" />
<path d="M58201 39653
L58300 39555
" />
<path d="M58398 39653
L58201 39653
" />
<path d="M58300 39555
L58398 39653
" />
<path d="M58398 39555
L58201 39555
" />
<path d="M58300 39574
L58300 39751
" />
<path d="M58516 39220
L58516 39968
" />
<path d="M58083 39220
L58083 39968
" />
<path d="M59183 39208
L59183 39956
" />
<path d="M59616 39208
L59616 39956
" />
<path d="M59400 39562
L59400 39740
" />
<path d="M59498 39543
L59301 39543
" />
<path d="M59400 39543
L59498 39641
" />
<path d="M59498 39641
L59301 39641
" />
<path d="M59301 39641
L59400 39543
" />
<path d="M57700 38701
L57798 38800
" />
<path d="M57700 38898
L57700 38701
" />
<path d="M57798 38800
L57700 38898
" />
<path d="M57798 38898
L57798 38701
" />
<path d="M57778 38800
L57601 38800
" />
<path d="M58133 39016
L57385 39016
" />
<path d="M58133 38583
L57385 38583
" />
<path d="M56983 42606
L56983 43354
" />
<path d="M57416 42606
L57416 43354
" />
<path d="M57200 42961
L57200 43138
" />
<path d="M57298 42941
L57101 42941
" />
<path d="M57200 42941
L57298 43040
" />
<path d="M57298 43040
L57101 43040
" />
<path d="M57101 43040
L57200 42941
" />
<path d="M57700 43801
L57798 43900
" />
<path d="M57700 43998
L57700 43801
" />
<path d="M57798 43900
L57700 43998
" />
<path d="M57798 43998
L57798 43801
" />
<path d="M57778 43900
L57601 43900
" />
<path d="M58133 44116
L57385 44116
" />
<path d="M58133 43683
L57385 43683
" />
</g>
<g style="fill:#000000; fill-opacity:0.0; 
stroke:#000000; stroke-width:50; stroke-opacity:1; 
stroke-linecap:round; stroke-linejoin:round;">
<path d="M69286 44912
L69286 41960
" />
<path d="M69286 44912
L69156 44912
" />
<path d="M69286 41960
L69156 41960
" />
<path d="M68276 41960
L68094 41960
" />
<path d="M68276 44912
L68094 44912
" />
<path d="M67594 44176
L67594 44093
" />
<path d="M67594 42779
L67594 42696
" />
</g>
<g style="fill:#000000; fill-opacity:0.0; 
stroke:#000000; stroke-width:15; stroke-opacity:1; 
stroke-linecap:round; stroke-linejoin:round;">
<path d="M69444 44065
L69345 44065
" />
<path d="M69345 44065
L69385 44026
" />
<path d="M69345 44065
L69385 44105
" />
<path d="M69444 44223
L69345 44223
" />
<path d="M69345 44223
L69385 44184
" />
<path d="M69345 44223
L69385 44262
" />
<path d="M69444 44380
L69345 44380
" />
<path d="M69345 44380
L69385 44341
" />
<path d="M69345 44380
L69385 44420
" />
<path d="M69444 44538
L69345 44538
" />
<path d="M69345 44538
L69385 44498
" />
<path d="M69345 44538
L69385 44577
" />
<path d="M69444 44695
L69345 44695
" />
<path d="M69345 44695
L69385 44656
" />
<path d="M69345 44695
L69385 44735
" />
<path d="M69444 42177
L69345 42177
" />
<path d="M69345 42177
L69385 42137
" />
<path d="M69345 42177
L69385 42216
" />
<path d="M69444 42334
L69345 42334
" />
<path d="M69345 42334
L69385 42295
" />
<path d="M69345 42334
L69385 42374
" />
<path d="M69444 42492
L69345 42492
" />
<path d="M69345 42492
L69385 42452
" />
<path d="M69345 42492
L69385 42531
" />
<path d="M69444 42649
L69345 42649
" />
<path d="M69345 42649
L69385 42610
" />
<path d="M69345 42649
L69385 42688
" />
<path d="M69444 42807
L69345 42807
" />
<path d="M69345 42807
L69385 42767
" />
<path d="M69345 42807
L69385 42846
" />
</g>
<g style="fill:#000000; fill-opacity:0.0; 
stroke:#000000; stroke-width:80; stroke-opacity:1; 
stroke-linecap:round; stroke-linejoin:round;">
<path d="M60939 39704
L60901 39704
" />
<path d="M60939 37854
L60901 37854
" />
<path d="M60330 39704
L60330 37854
" />
<path d="M61510 39704
L61510 37854
" />
<circle cx="60920" cy="38779" r="273" /> 
</g>
<g style="fill:#000000; fill-opacity:0.0; 
stroke:#000000; stroke-width:50; stroke-opacity:1; 
stroke-linecap:round; stroke-linejoin:round;">
<path d="M54372 43904
L54372 44296
" />
<path d="M53728 44296
L53728 43904
" />
<circle cx="53678" cy="44344" r="9" /> 
</g>
<g style="fill:#000000; fill-opacity:0.0; 
stroke:#000000; stroke-width:47.2441; stroke-opacity:1; 
stroke-linecap:round; stroke-linejoin:round;">
<path d="M54720 37911
L54353 37911
" />
<path d="M53475 37911
L53842 37911
" />
<path d="M53475 37911
L53475 38762
" />
<path d="M54720 37911
L54720 38486
" />
<path d="M61579 43695
L61579 44270
" />
<path d="M60335 43695
L60335 44546
" />
<path d="M60335 43695
L60701 43695
" />
<path d="M61579 43695
L61213 43695
" />
<path d="M62974 43700
L62607 43700
" />
<path d="M61729 43700
L62096 43700
" />
<path d="M61729 43700
L61729 44551
" />
<path d="M62974 43700
L62974 44275
" />
</g>
<g style="fill:#000000; fill-opacity:0.0; 
stroke:#000000; stroke-width:49.2126; stroke-opacity:1; 
stroke-linecap:round; stroke-linejoin:round;">
<path d="M59252 45325
L59242 45334
L59214 45344
L59195 45344
L59167 45334
L59149 45315
L59139 45297
L59130 45259
L59130 45231
L59139 45194
L59149 45175
L59167 45156
L59195 45147
L59214 45147
L59242 45156
L59252 45165
" />
<path d="M59345 45344
L59383 45344
L59402 45334
L59411 45325
L59430 45297
L59439 45259
L59439 45184
L59430 45165
L59420 45156
L59402 45147
L59364 45147
L59345 45156
L59336 45165
L59327 45184
L59327 45231
L59336 45250
L59345 45259
L59364 45269
L59402 45269
L59420 45259
L59430 45250
L59439 45231
" />
<path d="M57454 44941
L57360 45007
" />
<path d="M57454 45054
L57257 45054
L57257 44979
L57266 44960
L57275 44950
L57294 44941
L57322 44941
L57341 44950
L57350 44960
L57360 44979
L57360 45054
" />
<path d="M57454 44754
L57454 44866
" />
<path d="M57454 44810
L57257 44810
L57285 44829
L57304 44847
L57313 44866
" />
<path d="M57257 44688
L57257 44566
L57332 44632
L57332 44604
L57341 44585
L57350 44575
L57369 44566
L57416 44566
L57435 44575
L57444 44585
L57454 44604
L57454 44660
L57444 44679
L57435 44688
" />
<path d="M55705 43287
L55705 43446
L55714 43465
L55723 43474
L55742 43484
L55780 43484
L55798 43474
L55808 43465
L55817 43446
L55817 43287
" />
<path d="M56004 43287
L55911 43287
L55901 43380
L55911 43371
L55929 43362
L55976 43362
L55995 43371
L56004 43380
L56014 43399
L56014 43446
L56004 43465
L55995 43474
L55976 43484
L55929 43484
L55911 43474
L55901 43465
" />
<path d="M60064 41686
L60064 41779
L59867 41779
" />
<path d="M60064 41620
L59867 41620
L59867 41573
L59876 41545
L59895 41526
L59914 41517
L59951 41508
L59979 41508
L60017 41517
L60035 41526
L60054 41545
L60064 41573
L60064 41620
" />
<path d="M60064 41320
L60064 41433
" />
<path d="M60064 41376
L59867 41376
L59895 41395
L59914 41414
L59923 41433
" />
<path d="M50962 47746
L50962 47549
L51037 47549
L51056 47558
L51065 47567
L51075 47586
L51075 47614
L51065 47633
L51056 47642
L51037 47652
L50962 47652
" />
<path d="M51262 47746
L51150 47746
" />
<path d="M51206 47746
L51206 47549
L51187 47577
L51168 47596
L51150 47605
" />
</g>
<g style="fill:#000000; fill-opacity:0.0; 
stroke:#000000; stroke-width:59.0551; stroke-opacity:1; 
stroke-linecap:round; stroke-linejoin:round;">
</g>
<g style="fill:#000000; fill-opacity:0.0; 
stroke:#000000; stroke-width:49.2126; stroke-opacity:1; 
stroke-linecap:round; stroke-linejoin:round;">
<path d="M52835 39445
L52741 39511
" />
<path d="M52835 39558
L52638 39558
L52638 39483
L52647 39464
L52656 39454
L52675 39445
L52703 39445
L52722 39454
L52731 39464
L52741 39483
L52741 39558
" />
<path d="M52835 39258
L52835 39370
" />
<path d="M52835 39314
L52638 39314
L52666 39333
L52685 39351
L52694 39370
" />
<path d="M52656 39183
L52647 39173
L52638 39154
L52638 39108
L52647 39089
L52656 39079
L52675 39070
L52694 39070
L52722 39079
L52835 39192
L52835 39070
" />
<path d="M61945 39013
L61955 38985
L61955 38938
L61945 38919
L61936 38910
L61917 38900
L61898 38900
L61880 38910
L61870 38919
L61861 38938
L61851 38975
L61842 38994
L61833 39004
L61814 39013
L61795 39013
L61776 39004
L61767 38994
L61758 38975
L61758 38929
L61767 38900
" />
<path d="M61758 38835
L61955 38788
L61814 38751
L61955 38713
L61758 38666
" />
<path d="M61776 38601
L61767 38591
L61758 38572
L61758 38526
L61767 38507
L61776 38497
L61795 38488
L61814 38488
L61842 38497
L61955 38610
L61955 38488
" />
<path d="M63689 39031
L63699 39003
L63699 38956
L63689 38937
L63680 38928
L63661 38918
L63642 38918
L63624 38928
L63614 38937
L63605 38956
L63595 38993
L63586 39012
L63577 39022
L63558 39031
L63539 39031
L63520 39022
L63511 39012
L63502 38993
L63502 38947
L63511 38918
" />
<path d="M63502 38853
L63699 38806
L63558 38769
L63699 38731
L63502 38684
" />
<path d="M63502 38628
L63502 38506
L63577 38572
L63577 38544
L63586 38525
L63595 38515
L63614 38506
L63661 38506
L63680 38515
L63689 38525
L63699 38544
L63699 38600
L63689 38619
L63680 38628
" />
<path d="M62365 41437
L62365 41596
L62374 41615
L62383 41624
L62402 41634
L62440 41634
L62458 41624
L62468 41615
L62477 41596
L62477 41437
" />
<path d="M62561 41455
L62571 41446
L62589 41437
L62636 41437
L62655 41446
L62664 41455
L62674 41474
L62674 41493
L62664 41521
L62552 41634
L62674 41634
" />
<path d="M66020 37605
L65955 37511
" />
<path d="M65908 37605
L65908 37408
L65983 37408
L66002 37417
L66011 37426
L66020 37445
L66020 37473
L66011 37492
L66002 37501
L65983 37511
L65908 37511
" />
<path d="M66077 37408
L66142 37605
L66208 37408
" />
<path d="M66377 37605
L66264 37605
" />
<path d="M66320 37605
L66320 37408
L66302 37436
L66283 37455
L66264 37464
" />
<path d="M47964 37734
L48104 37734
L48132 37743
L48151 37762
L48161 37790
L48161 37809
" />
<path d="M48161 37537
L48161 37649
" />
<path d="M48161 37593
L47964 37593
L47992 37612
L48011 37631
L48020 37649
" />
<path d="M63537 42520
L63527 42529
L63499 42539
L63480 42539
L63452 42529
L63434 42510
L63424 42492
L63415 42454
L63415 42426
L63424 42389
L63434 42370
L63452 42351
L63480 42342
L63499 42342
L63527 42351
L63537 42360
" />
<path d="M63602 42342
L63724 42342
L63659 42417
L63687 42417
L63705 42426
L63715 42435
L63724 42454
L63724 42501
L63715 42520
L63705 42529
L63687 42539
L63630 42539
L63612 42529
L63602 42520
" />
<path d="M66617 44620
L66607 44629
L66579 44639
L66560 44639
L66532 44629
L66514 44610
L66504 44592
L66495 44554
L66495 44526
L66504 44489
L66514 44470
L66532 44451
L66560 44442
L66579 44442
L66607 44451
L66617 44460
" />
<path d="M66785 44507
L66785 44639
" />
<path d="M66739 44432
L66692 44573
L66814 44573
" />
<path d="M63010 43083
L63020 43092
L63029 43120
L63029 43139
L63020 43167
L63001 43186
L62982 43195
L62945 43205
L62917 43205
L62879 43195
L62860 43186
L62842 43167
L62832 43139
L62832 43120
L62842 43092
L62851 43083
" />
<path d="M62832 42905
L62832 42998
L62926 43008
L62917 42998
L62907 42980
L62907 42933
L62917 42914
L62926 42905
L62945 42895
L62992 42895
L63010 42905
L63020 42914
L63029 42933
L63029 42980
L63020 42998
L63010 43008
" />
<path d="M64573 45381
L64564 45390
L64536 45399
L64517 45399
L64489 45390
L64470 45371
L64461 45353
L64451 45315
L64451 45287
L64461 45249
L64470 45231
L64489 45212
L64517 45203
L64536 45203
L64564 45212
L64573 45221
" />
<path d="M64686 45287
L64667 45278
L64658 45268
L64648 45249
L64648 45240
L64658 45221
L64667 45212
L64686 45203
L64723 45203
L64742 45212
L64751 45221
L64761 45240
L64761 45249
L64751 45268
L64742 45278
L64723 45287
L64686 45287
L64667 45296
L64658 45306
L64648 45324
L64648 45362
L64658 45381
L64667 45390
L64686 45399
L64723 45399
L64742 45390
L64751 45381
L64761 45362
L64761 45324
L64751 45306
L64742 45296
L64723 45287
" />
<path d="M54955 44657
L54964 44667
L54974 44695
L54974 44714
L54964 44742
L54945 44760
L54927 44770
L54889 44779
L54861 44779
L54824 44770
L54805 44760
L54786 44742
L54777 44714
L54777 44695
L54786 44667
L54795 44657
" />
<path d="M54777 44592
L54777 44460
L54974 44545
" />
<path d="M63424 43753
L63433 43763
L63443 43791
L63443 43810
L63433 43838
L63414 43856
L63396 43866
L63358 43875
L63330 43875
L63293 43866
L63274 43856
L63255 43838
L63246 43810
L63246 43791
L63255 43763
L63264 43753
" />
<path d="M63246 43585
L63246 43622
L63255 43641
L63264 43650
L63293 43669
L63330 43678
L63405 43678
L63424 43669
L63433 43660
L63443 43641
L63443 43603
L63433 43585
L63424 43575
L63405 43566
L63358 43566
L63339 43575
L63330 43585
L63321 43603
L63321 43641
L63330 43660
L63339 43669
L63358 43678
" />
<path d="M62535 42187
L62544 42197
L62554 42225
L62554 42244
L62544 42272
L62525 42290
L62507 42300
L62469 42309
L62441 42309
L62404 42300
L62385 42290
L62366 42272
L62357 42244
L62357 42225
L62366 42197
L62375 42187
" />
<path d="M62375 42112
L62366 42103
L62357 42084
L62357 42037
L62366 42019
L62375 42009
L62394 42000
L62413 42000
L62441 42009
L62554 42122
L62554 42000
" />
<path d="M65793 44167
L65793 44326
L65803 44345
L65812 44354
L65831 44364
L65868 44364
L65887 44354
L65896 44345
L65906 44326
L65906 44167
" />
<path d="M66084 44233
L66084 44364
" />
<path d="M66037 44158
L65990 44298
L66112 44298
" />
<path d="M59717 37607
L59651 37513
" />
<path d="M59604 37607
L59604 37410
L59679 37410
L59698 37419
L59708 37428
L59717 37447
L59717 37475
L59708 37494
L59698 37503
L59679 37513
L59604 37513
" />
<path d="M59904 37607
L59792 37607
" />
<path d="M59848 37607
L59848 37410
L59829 37438
L59811 37457
L59792 37466
" />
<path d="M60092 37607
L59979 37607
" />
<path d="M60036 37607
L60036 37410
L60017 37438
L59998 37457
L59979 37466
" />
<path d="M66217 43702
L66151 43609
" />
<path d="M66104 43702
L66104 43505
L66179 43505
L66198 43515
L66207 43524
L66217 43543
L66217 43571
L66207 43590
L66198 43599
L66179 43609
L66104 43609
" />
<path d="M66310 43702
L66348 43702
L66367 43693
L66376 43684
L66395 43655
L66404 43618
L66404 43543
L66395 43524
L66385 43515
L66367 43505
L66329 43505
L66310 43515
L66301 43524
L66292 43543
L66292 43590
L66301 43609
L66310 43618
L66329 43627
L66367 43627
L66385 43618
L66395 43609
L66404 43590
" />
<path d="M65403 41162
L65337 41069
" />
<path d="M65290 41162
L65290 40966
L65365 40966
L65384 40975
L65393 40984
L65403 41003
L65403 41031
L65393 41050
L65384 41059
L65365 41069
L65290 41069
" />
<path d="M65515 41050
L65497 41041
L65487 41031
L65478 41013
L65478 41003
L65487 40984
L65497 40975
L65515 40966
L65553 40966
L65572 40975
L65581 40984
L65590 41003
L65590 41013
L65581 41031
L65572 41041
L65553 41050
L65515 41050
L65497 41059
L65487 41069
L65478 41087
L65478 41125
L65487 41144
L65497 41153
L65515 41162
L65553 41162
L65572 41153
L65581 41144
L65590 41125
L65590 41087
L65581 41069
L65572 41059
L65553 41050
" />
<path d="M66073 43389
L66007 43295
" />
<path d="M65960 43389
L65960 43192
L66035 43192
L66054 43201
L66064 43210
L66073 43229
L66073 43257
L66064 43276
L66054 43285
L66035 43295
L65960 43295
" />
<path d="M66260 43389
L66148 43389
" />
<path d="M66204 43389
L66204 43192
L66185 43220
L66167 43239
L66148 43248
" />
<path d="M66382 43192
L66401 43192
L66420 43201
L66429 43210
L66439 43229
L66448 43267
L66448 43314
L66439 43351
L66429 43370
L66420 43379
L66401 43389
L66382 43389
L66364 43379
L66354 43370
L66345 43351
L66335 43314
L66335 43267
L66345 43229
L66354 43210
L66364 43201
L66382 43192
" />
<path d="M65567 44958
L65501 44958
" />
<path d="M65501 45061
L65501 44864
L65595 44864
" />
<path d="M65736 44958
L65764 44967
L65773 44977
L65783 44995
L65783 45023
L65773 45042
L65764 45052
L65745 45061
L65670 45061
L65670 44864
L65736 44864
L65754 44873
L65764 44883
L65773 44902
L65773 44920
L65764 44939
L65754 44948
L65736 44958
L65670 44958
" />
<path d="M65848 44864
L65970 44864
L65904 44939
L65932 44939
L65951 44948
L65961 44958
L65970 44977
L65970 45023
L65961 45042
L65951 45052
L65932 45061
L65876 45061
L65858 45052
L65848 45042
" />
</g>
<g style="fill:#000000; fill-opacity:0.0; 
stroke:#000000; stroke-width:50; stroke-opacity:1; 
stroke-linecap:round; stroke-linejoin:round;">
</g>
<g style="fill:#000000; fill-opacity:0.0; 
stroke:#000000; stroke-width:49.2126; stroke-opacity:1; 
stroke-linecap:round; stroke-linejoin:round;">
<path d="M53060 43129
L53060 43194
" />
<path d="M53164 43194
L52967 43194
L52967 43100
" />
<path d="M53060 42960
L53070 42932
L53079 42922
L53098 42913
L53126 42913
L53145 42922
L53154 42932
L53164 42950
L53164 43025
L52967 43025
L52967 42960
L52976 42941
L52985 42932
L53004 42922
L53023 42922
L53042 42932
L53051 42941
L53060 42960
L53060 43025
" />
<path d="M52985 42838
L52976 42829
L52967 42810
L52967 42763
L52976 42744
L52985 42735
L53004 42725
L53023 42725
L53051 42735
L53164 42847
L53164 42725
" />
</g>
<g style="fill:#000000; fill-opacity:0.0; 
stroke:#000000; stroke-width:50; stroke-opacity:1; 
stroke-linecap:round; stroke-linejoin:round;">
</g>
<g style="fill:#000000; fill-opacity:0.0; 
stroke:#000000; stroke-width:49.2126; stroke-opacity:1; 
stroke-linecap:round; stroke-linejoin:round;">
<path d="M53040 41619
L53040 41684
" />
<path d="M53144 41684
L52947 41684
L52947 41590
" />
<path d="M53040 41450
L53050 41422
L53059 41412
L53078 41403
L53106 41403
L53125 41412
L53134 41422
L53144 41440
L53144 41515
L52947 41515
L52947 41450
L52956 41431
L52965 41422
L52984 41412
L53003 41412
L53022 41422
L53031 41431
L53040 41450
L53040 41515
" />
<path d="M53012 41234
L53144 41234
" />
<path d="M52937 41281
L53078 41328
L53078 41206
" />
</g>
<g style="fill:#000000; fill-opacity:0.0; 
stroke:#000000; stroke-width:50; stroke-opacity:1; 
stroke-linecap:round; stroke-linejoin:round;">
</g>
<g style="fill:#000000; fill-opacity:0.0; 
stroke:#000000; stroke-width:49.2126; stroke-opacity:1; 
stroke-linecap:round; stroke-linejoin:round;">
<path d="M61741 43026
L61675 42932
" />
<path d="M61628 43026
L61628 42829
L61703 42829
L61722 42838
L61731 42848
L61741 42866
L61741 42894
L61731 42913
L61722 42923
L61703 42932
L61628 42932
" />
<path d="M61825 43026
L61825 42829
L61938 43026
L61938 42829
" />
<path d="M62125 42829
L62031 42829
L62022 42923
L62031 42913
L62050 42904
L62097 42904
L62116 42913
L62125 42923
L62134 42941
L62134 42988
L62125 43007
L62116 43016
L62097 43026
L62050 43026
L62031 43016
L62022 43007
" />
<path d="M57144 41500
L57050 41566
" />
<path d="M57144 41613
L56947 41613
L56947 41538
L56956 41519
L56965 41510
L56984 41500
L57012 41500
L57031 41510
L57040 41519
L57050 41538
L57050 41613
" />
<path d="M57144 41416
L56947 41416
L57144 41304
L56947 41304
" />
<path d="M57012 41125
L57144 41125
" />
<path d="M56937 41172
L57078 41219
L57078 41097
" />
<path d="M55159 43239
L55093 43145
" />
<path d="M55046 43239
L55046 43042
L55121 43042
L55140 43051
L55149 43060
L55159 43079
L55159 43107
L55149 43126
L55140 43135
L55121 43145
L55046 43145
" />
<path d="M55243 43239
L55243 43042
L55356 43239
L55356 43042
" />
<path d="M55431 43042
L55553 43042
L55487 43117
L55515 43117
L55534 43126
L55543 43135
L55553 43154
L55553 43201
L55543 43220
L55534 43229
L55515 43239
L55459 43239
L55440 43229
L55431 43220
" />
<path d="M54564 39289
L54498 39195
" />
<path d="M54451 39289
L54451 39092
L54526 39092
L54545 39101
L54554 39110
L54564 39129
L54564 39157
L54554 39176
L54545 39185
L54526 39195
L54451 39195
" />
<path d="M54648 39289
L54648 39092
L54760 39289
L54760 39092
" />
<path d="M54845 39110
L54854 39101
L54873 39092
L54920 39092
L54939 39101
L54948 39110
L54957 39129
L54957 39148
L54948 39176
L54835 39289
L54957 39289
" />
<path d="M55464 39289
L55398 39195
" />
<path d="M55351 39289
L55351 39092
L55426 39092
L55445 39101
L55454 39110
L55464 39129
L55464 39157
L55454 39176
L55445 39185
L55426 39195
L55351 39195
" />
<path d="M55548 39289
L55548 39092
L55660 39289
L55660 39092
" />
<path d="M55857 39289
L55745 39289
" />
<path d="M55801 39289
L55801 39092
L55782 39120
L55764 39139
L55745 39148
" />
<path d="M53811 39414
L53820 39424
L53830 39452
L53830 39471
L53820 39499
L53801 39517
L53783 39527
L53745 39536
L53717 39536
L53680 39527
L53661 39517
L53642 39499
L53633 39471
L53633 39452
L53642 39424
L53651 39414
" />
<path d="M53830 39227
L53830 39339
" />
<path d="M53830 39283
L53633 39283
L53661 39302
L53680 39321
L53689 39339
" />
<path d="M56250 40192
L56250 40351
L56259 40370
L56268 40379
L56287 40389
L56325 40389
L56343 40379
L56353 40370
L56362 40351
L56362 40192
" />
<path d="M56559 40389
L56446 40389
" />
<path d="M56503 40389
L56503 40192
L56484 40220
L56465 40239
L56446 40248
" />
<path d="M65410 41682
L65344 41589
" />
<path d="M65297 41682
L65297 41486
L65372 41486
L65391 41495
L65400 41504
L65410 41523
L65410 41551
L65400 41570
L65391 41579
L65372 41589
L65297 41589
" />
<path d="M65475 41486
L65607 41486
L65522 41682
" />
<path d="M52863 38581
L52769 38647
" />
<path d="M52863 38694
L52666 38694
L52666 38619
L52675 38600
L52684 38591
L52703 38581
L52731 38581
L52750 38591
L52759 38600
L52769 38619
L52769 38694
" />
<path d="M52666 38413
L52666 38450
L52675 38469
L52684 38478
L52713 38497
L52750 38506
L52825 38506
L52844 38497
L52853 38488
L52863 38469
L52863 38431
L52853 38413
L52844 38403
L52825 38394
L52778 38394
L52759 38403
L52750 38413
L52741 38431
L52741 38469
L52750 38488
L52759 38497
L52778 38506
" />
<path d="M59959 45332
L59893 45238
" />
<path d="M59846 45332
L59846 45135
L59921 45135
L59940 45144
L59949 45153
L59959 45172
L59959 45200
L59949 45219
L59940 45228
L59921 45238
L59846 45238
" />
<path d="M60127 45200
L60127 45332
" />
<path d="M60081 45125
L60034 45266
L60156 45266
" />
<path d="M52863 37831
L52769 37897
" />
<path d="M52863 37944
L52666 37944
L52666 37869
L52675 37850
L52684 37841
L52703 37831
L52731 37831
L52750 37841
L52759 37850
L52769 37869
L52769 37944
" />
<path d="M52666 37766
L52666 37644
L52741 37709
L52741 37681
L52750 37663
L52759 37653
L52778 37644
L52825 37644
L52844 37653
L52853 37663
L52863 37681
L52863 37738
L52853 37756
L52844 37766
" />
<path d="M62469 45314
L62403 45220
" />
<path d="M62356 45314
L62356 45117
L62431 45117
L62450 45126
L62459 45135
L62469 45154
L62469 45182
L62459 45201
L62450 45210
L62431 45220
L62356 45220
" />
<path d="M62544 45135
L62553 45126
L62572 45117
L62619 45117
L62637 45126
L62647 45135
L62656 45154
L62656 45173
L62647 45201
L62534 45314
L62656 45314
" />
<path d="M60803 45306
L60737 45212
" />
<path d="M60690 45306
L60690 45109
L60765 45109
L60784 45118
L60793 45127
L60803 45146
L60803 45174
L60793 45193
L60784 45202
L60765 45212
L60690 45212
" />
<path d="M60990 45306
L60878 45306
" />
<path d="M60934 45306
L60934 45109
L60915 45137
L60896 45156
L60878 45165
" />
<path d="M61764 45320
L61698 45226
" />
<path d="M61651 45320
L61651 45123
L61726 45123
L61745 45132
L61754 45141
L61764 45160
L61764 45188
L61754 45207
L61745 45216
L61726 45226
L61651 45226
" />
<path d="M61942 45123
L61848 45123
L61839 45216
L61848 45207
L61867 45198
L61914 45198
L61932 45207
L61942 45216
L61951 45235
L61951 45282
L61942 45301
L61932 45310
L61914 45320
L61867 45320
L61848 45310
L61839 45301
" />
<path d="M65610 41951
L65545 41951
" />
<path d="M65545 42054
L65545 41857
L65639 41857
" />
<path d="M65779 41951
L65807 41960
L65817 41969
L65826 41988
L65826 42016
L65817 42035
L65807 42044
L65789 42054
L65714 42054
L65714 41857
L65779 41857
L65798 41866
L65807 41876
L65817 41894
L65817 41913
L65807 41932
L65798 41941
L65779 41951
L65714 41951
" />
<path d="M66014 42054
L65901 42054
" />
<path d="M65957 42054
L65957 41857
L65939 41885
L65920 41904
L65901 41913
" />
</g>
<g style="fill:#000000; fill-opacity:0.0; 
stroke:#000000; stroke-width:50; stroke-opacity:1; 
stroke-linecap:round; stroke-linejoin:round;">
</g>
<g style="fill:#000000; fill-opacity:0.0; 
stroke:#000000; stroke-width:49.2126; stroke-opacity:1; 
stroke-linecap:round; stroke-linejoin:round;">
<path d="M68411 45467
L68542 45663
" />
<path d="M68542 45467
L68411 45663
" />
<path d="M68720 45663
L68608 45663
" />
<path d="M68664 45663
L68664 45467
L68645 45495
L68627 45513
L68608 45523
" />
</g>
<g style="fill:#000000; fill-opacity:0.0; 
stroke:#000000; stroke-width:10; stroke-opacity:1; 
stroke-linecap:round; stroke-linejoin:round;">
<path d="M69288 43341
L69288 43307
" />
<path d="M69340 43293
L69340 43341
L69240 43341
L69240 43293
" />
<path d="M69340 43207
L69240 43207
" />
<path d="M69336 43207
L69340 43217
L69340 43236
L69336 43246
L69331 43250
L69321 43255
L69293 43255
L69283 43250
L69278 43246
L69274 43236
L69274 43217
L69278 43207
" />
<path d="M69274 43117
L69355 43117
L69364 43122
L69369 43127
L69374 43136
L69374 43150
L69369 43160
" />
<path d="M69336 43117
L69340 43127
L69340 43146
L69336 43155
L69331 43160
L69321 43165
L69293 43165
L69283 43160
L69278 43155
L69274 43146
L69274 43127
L69278 43117
" />
<path d="M69336 43031
L69340 43041
L69340 43060
L69336 43069
L69326 43074
L69288 43074
L69278 43069
L69274 43060
L69274 43041
L69278 43031
L69288 43027
L69297 43027
L69307 43074
" />
<path d="M69340 42893
L69336 42903
L69331 42907
L69321 42912
L69293 42912
L69283 42907
L69278 42903
L69274 42893
L69274 42879
L69278 42869
L69283 42865
L69293 42860
L69321 42860
L69331 42865
L69336 42869
L69340 42879
L69340 42893
" />
<path d="M69274 42831
L69274 42793
" />
<path d="M69340 42817
L69255 42817
L69245 42812
L69240 42803
L69240 42793
" />
<path d="M69340 42684
L69240 42684
L69240 42646
L69245 42636
L69250 42631
L69259 42627
L69274 42627
L69283 42631
L69288 42636
L69293 42646
L69293 42684
" />
<path d="M69331 42527
L69336 42531
L69340 42546
L69340 42555
L69336 42569
L69326 42579
L69316 42584
L69297 42588
L69283 42588
L69264 42584
L69255 42579
L69245 42569
L69240 42555
L69240 42546
L69245 42531
L69250 42527
" />
<path d="M69288 42450
L69293 42436
L69297 42431
L69307 42427
L69321 42427
L69331 42431
L69336 42436
L69340 42446
L69340 42484
L69240 42484
L69240 42450
L69245 42441
L69250 42436
L69259 42431
L69269 42431
L69278 42436
L69283 42441
L69288 42450
L69288 42484
" />
</g>
<g style="fill:#000000; fill-opacity:0.0; 
stroke:#000000; stroke-width:49.2126; stroke-opacity:1; 
stroke-linecap:round; stroke-linejoin:round;">
<path d="M60220 39031
L60230 39003
L60230 38956
L60220 38937
L60211 38928
L60192 38918
L60173 38918
L60155 38928
L60145 38937
L60136 38956
L60126 38993
L60117 39012
L60108 39022
L60089 39031
L60070 39031
L60051 39022
L60042 39012
L60033 38993
L60033 38947
L60042 38918
" />
<path d="M60033 38853
L60230 38806
L60089 38769
L60230 38731
L60033 38684
" />
<path d="M60230 38506
L60230 38619
" />
<path d="M60230 38562
L60033 38562
L60061 38581
L60080 38600
L60089 38619
" />
<path d="M53935 43512
L53935 43671
L53944 43690
L53953 43699
L53972 43709
L54010 43709
L54028 43699
L54038 43690
L54047 43671
L54047 43512
" />
<path d="M54122 43512
L54244 43512
L54178 43587
L54206 43587
L54225 43596
L54234 43605
L54244 43624
L54244 43671
L54234 43690
L54225 43699
L54206 43709
L54150 43709
L54131 43699
L54122 43690
" />
<path d="M54538 37834
L54519 37825
L54500 37806
L54472 37778
L54453 37769
L54435 37769
" />
<path d="M54444 37816
L54425 37806
L54406 37787
L54397 37750
L54397 37684
L54406 37647
L54425 37628
L54444 37619
L54481 37619
L54500 37628
L54519 37647
L54528 37684
L54528 37750
L54519 37787
L54500 37806
L54481 37816
L54444 37816
" />
<path d="M54594 37619
L54716 37619
L54650 37694
L54678 37694
L54697 37703
L54706 37712
L54716 37731
L54716 37778
L54706 37797
L54697 37806
L54678 37816
L54622 37816
L54603 37806
L54594 37797
" />
<path d="M61391 43617
L61372 43608
L61353 43589
L61325 43561
L61306 43552
L61288 43552
" />
<path d="M61297 43599
L61278 43589
L61260 43570
L61250 43533
L61250 43467
L61260 43430
L61278 43411
L61297 43402
L61335 43402
L61353 43411
L61372 43430
L61381 43467
L61381 43533
L61372 43570
L61353 43589
L61335 43599
L61297 43599
" />
<path d="M61569 43599
L61456 43599
" />
<path d="M61513 43599
L61513 43402
L61494 43430
L61475 43449
L61456 43458
" />
<path d="M62813 43605
L62794 43596
L62775 43577
L62747 43549
L62728 43540
L62710 43540
" />
<path d="M62719 43587
L62700 43577
L62682 43558
L62672 43521
L62672 43455
L62682 43418
L62700 43399
L62719 43390
L62757 43390
L62775 43399
L62794 43418
L62803 43455
L62803 43521
L62794 43558
L62775 43577
L62757 43587
L62719 43587
" />
<path d="M62878 43408
L62888 43399
L62906 43390
L62953 43390
L62972 43399
L62981 43408
L62991 43427
L62991 43446
L62981 43474
L62869 43587
L62991 43587
" />
<path d="M50994 35187
L50994 34990
L51069 34990
L51088 34999
L51097 35008
L51107 35027
L51107 35055
L51097 35074
L51088 35083
L51069 35093
L50994 35093
" />
<path d="M51182 35008
L51191 34999
L51210 34990
L51257 34990
L51275 34999
L51285 35008
L51294 35027
L51294 35046
L51285 35074
L51172 35187
L51294 35187
" />
</g>
<g style="fill:#000000; fill-opacity:0.0; 
stroke:#000000; stroke-width:59.0551; stroke-opacity:1; 
stroke-linecap:round; stroke-linejoin:round;">
</g>
<g style="fill:#000000; fill-opacity:1.0; 
stroke:#000000; stroke-width:100; stroke-opacity:1; 
stroke-linecap:round; stroke-linejoin:round;">
<polyline style="fill-rule:evenodd;"
points="57145,44185
56955,44185
56955,43615
57145,43615
57145,44185
" /> 
<polyline style="fill-rule:evenodd;"
points="59645,44185
59455,44185
59455,43615
59645,43615
59645,44185
" /> 
<polyline style="fill-rule:evenodd;"
points="59635,42445
59445,42445
59445,41875
59635,41875
59635,42445
" /> 
<polyline style="fill-rule:evenodd;"
points="57135,42445
56945,42445
56945,41875
57135,41875
57135,42445
" /> 
<polyline style="fill-rule:evenodd;"
points="57145,40795
56955,40795
56955,40225
57145,40225
57145,40795
" /> 
<polyline style="fill-rule:evenodd;"
points="59645,40795
59455,40795
59455,40225
59645,40225
59645,40795
" /> 
<polyline style="fill-rule:evenodd;"
points="57145,39055
56955,39055
56955,38485
57145,38485
57145,39055
" /> 
<polyline style="fill-rule:evenodd;"
points="59645,39055
59455,39055
59455,38485
59645,38485
59645,39055
" /> 
<polyline style="fill-rule:evenodd;"
points="57955,43515
57545,43515
57545,42555
57955,42555
57955,43515
" /> 
<polyline style="fill-rule:evenodd;"
points="59055,43515
58645,43515
58645,42555
59055,42555
59055,43515
" /> 
<polyline style="fill-rule:evenodd;"
points="57955,40125
57545,40125
57545,39165
57955,39165
57955,40125
" /> 
<polyline style="fill-rule:evenodd;"
points="59055,40125
58645,40125
58645,39165
59055,39165
59055,40125
" /> 
</g> 
</svg>
