<?xml version="1.0" standalone="no"?>
 <!DOCTYPE svg PUBLIC "-//W3C//DTD SVG 1.1//EN" 
 "http://www.w3.org/Graphics/SVG/1.1/DTD/svg11.dtd"> 
<svg xmlns="http://www.w3.org/2000/svg" version="1.1" 
    width="29.7002cm" height="21.0007cm" viewBox="0 0 116930 82680 ">
<title>SVG Picture created as baconbits-F.Paste.svg date 2018/02/15 13:51:29 </title>
  <desc>Picture generated by PCBNEW </desc>
<g style="fill:#000000; fill-opacity:1;stroke:#000000; stroke-opacity:1;
stroke-linecap:round; stroke-linejoin:round; "
 transform="translate(0 0) scale(1 1)">
</g>
<g style="fill:#000000; fill-opacity:0.0; 
stroke:#000000; stroke-width:-0.000393701; stroke-opacity:1; 
stroke-linecap:round; stroke-linejoin:round;">
</g>
<g style="fill:#000000; fill-opacity:0.0; 
stroke:#000000; stroke-width:0; stroke-opacity:1; 
stroke-linecap:round; stroke-linejoin:round;">
</g>
<g style="fill:#000000; fill-opacity:1.0; 
stroke:#000000; stroke-width:0; stroke-opacity:1; 
stroke-linecap:round; stroke-linejoin:round;">
<polyline style="fill-rule:evenodd;"
points="57824,45111
57824,44618
58218,44618
58218,45111
57824,45111
" /> 
<polyline style="fill-rule:evenodd;"
points="58611,45111
58611,44618
59005,44618
59005,45111
58611,45111
" /> 
<polyline style="fill-rule:evenodd;"
points="56827,44511
57063,44511
57063,44707
56827,44707
56827,44511
" /> 
<polyline style="fill-rule:evenodd;"
points="56827,44903
57063,44903
57063,45099
56827,45099
56827,44903
" /> 
<polyline style="fill-rule:evenodd;"
points="55313,43988
55313,43733
55730,43733
55730,43988
55313,43988
" /> 
<polyline style="fill-rule:evenodd;"
points="55313,44362
55313,44107
55730,44107
55730,44362
55313,44362
" /> 
<polyline style="fill-rule:evenodd;"
points="55313,44736
55313,44481
55730,44481
55730,44736
55313,44736
" /> 
<polyline style="fill-rule:evenodd;"
points="56179,44736
56179,44481
56596,44481
56596,44736
56179,44736
" /> 
<polyline style="fill-rule:evenodd;"
points="56179,43988
56179,43733
56596,43733
56596,43988
56179,43988
" /> 
<polyline style="fill-rule:evenodd;"
points="60781,41727
60781,42514
60230,42514
60230,41727
60781,41727
" /> 
<polyline style="fill-rule:evenodd;"
points="61411,41727
61411,42514
61018,42514
61018,41727
61411,41727
" /> 
<polyline style="fill-rule:evenodd;"
points="62199,41727
62199,42514
61648,42514
61648,41727
62199,41727
" /> 
<polyline style="fill-rule:evenodd;"
points="62199,39995
62199,40782
61648,40782
61648,39995
62199,39995
" /> 
<polyline style="fill-rule:evenodd;"
points="61411,39995
61411,40782
61018,40782
61018,39995
61411,39995
" /> 
<polyline style="fill-rule:evenodd;"
points="60781,39995
60781,40782
60230,40782
60230,39995
60781,39995
" /> 
<polyline style="fill-rule:evenodd;"
points="53191,39596
52955,39596
52955,39400
53191,39400
53191,39596
" /> 
<polyline style="fill-rule:evenodd;"
points="53191,39204
52955,39204
52955,39008
53191,39008
53191,39204
" /> 
<polyline style="fill-rule:evenodd;"
points="63106,38228
62752,38228
62752,37756
63106,37756
63106,38228
" /> 
<polyline style="fill-rule:evenodd;"
points="63106,39802
62752,39802
62752,39330
63106,39330
63106,39802
" /> 
<polyline style="fill-rule:evenodd;"
points="62516,38228
62162,38228
62162,37756
62516,37756
62516,38228
" /> 
<polyline style="fill-rule:evenodd;"
points="62516,39802
62162,39802
62162,39330
62516,39330
62516,39802
" /> 
<polyline style="fill-rule:evenodd;"
points="64266,39802
63912,39802
63912,39330
64266,39330
64266,39802
" /> 
<polyline style="fill-rule:evenodd;"
points="64266,38228
63912,38228
63912,37756
64266,37756
64266,38228
" /> 
<polyline style="fill-rule:evenodd;"
points="64856,39802
64502,39802
64502,39330
64856,39330
64856,39802
" /> 
<polyline style="fill-rule:evenodd;"
points="64856,38228
64502,38228
64502,37756
64856,37756
64856,38228
" /> 
<polyline style="fill-rule:evenodd;"
points="63073,41546
62953,41546
62953,41225
63073,41225
63073,41546
" /> 
<polyline style="fill-rule:evenodd;"
points="63270,41546
63150,41546
63150,41225
63270,41225
63270,41546
" /> 
<polyline style="fill-rule:evenodd;"
points="63467,41546
63346,41546
63346,41225
63467,41225
63467,41546
" /> 
<polyline style="fill-rule:evenodd;"
points="63663,41546
63543,41546
63543,41225
63663,41225
63663,41546
" /> 
<polyline style="fill-rule:evenodd;"
points="63860,41546
63740,41546
63740,41225
63860,41225
63860,41546
" /> 
<polyline style="fill-rule:evenodd;"
points="64069,41020
64069,41140
63748,41140
63748,41020
64069,41020
" /> 
<polyline style="fill-rule:evenodd;"
points="64069,40823
64069,40944
63748,40944
63748,40823
64069,40823
" /> 
<polyline style="fill-rule:evenodd;"
points="64069,40627
64069,40747
63748,40747
63748,40627
64069,40627
" /> 
<polyline style="fill-rule:evenodd;"
points="63860,40542
63740,40542
63740,40221
63860,40221
63860,40542
" /> 
<polyline style="fill-rule:evenodd;"
points="63663,40542
63543,40542
63543,40221
63663,40221
63663,40542
" /> 
<polyline style="fill-rule:evenodd;"
points="63467,40542
63346,40542
63346,40221
63467,40221
63467,40542
" /> 
<polyline style="fill-rule:evenodd;"
points="63270,40542
63150,40542
63150,40221
63270,40221
63270,40542
" /> 
<polyline style="fill-rule:evenodd;"
points="63073,40542
62953,40542
62953,40221
63073,40221
63073,40542
" /> 
<polyline style="fill-rule:evenodd;"
points="63065,40627
63065,40747
62744,40747
62744,40627
63065,40627
" /> 
<polyline style="fill-rule:evenodd;"
points="63065,40823
63065,40944
62744,40944
62744,40823
63065,40823
" /> 
<polyline style="fill-rule:evenodd;"
points="63065,41020
63065,41140
62744,41140
62744,41020
63065,41020
" /> 
<polyline style="fill-rule:evenodd;"
points="63255,42158
63255,41961
63491,41961
63491,42158
63255,42158
" /> 
<polyline style="fill-rule:evenodd;"
points="63688,42158
63688,41961
63924,41961
63924,42158
63688,42158
" /> 
<polyline style="fill-rule:evenodd;"
points="66578,44001
66578,44198
66342,44198
66342,44001
66578,44001
" /> 
<polyline style="fill-rule:evenodd;"
points="67011,44001
67011,44198
66775,44198
66775,44001
67011,44001
" /> 
<polyline style="fill-rule:evenodd;"
points="63251,42698
63448,42698
63448,42935
63251,42935
63251,42698
" /> 
<polyline style="fill-rule:evenodd;"
points="63251,43131
63448,43131
63448,43368
63251,43368
63251,43131
" /> 
<polyline style="fill-rule:evenodd;"
points="64501,44801
64501,44998
64265,44998
64265,44801
64501,44801
" /> 
<polyline style="fill-rule:evenodd;"
points="64934,44801
64934,44998
64698,44998
64698,44801
64934,44801
" /> 
<polyline style="fill-rule:evenodd;"
points="54776,43600
54973,43600
54973,43836
54776,43836
54776,43600
" /> 
<polyline style="fill-rule:evenodd;"
points="54776,44033
54973,44033
54973,44269
54776,44269
54776,44033
" /> 
<polyline style="fill-rule:evenodd;"
points="63251,44468
63448,44468
63448,44704
63251,44704
63251,44468
" /> 
<polyline style="fill-rule:evenodd;"
points="63251,44035
63448,44035
63448,44271
63251,44271
63251,44035
" /> 
<polyline style="fill-rule:evenodd;"
points="62716,41860
62913,41860
62913,42096
62716,42096
62716,41860
" /> 
<polyline style="fill-rule:evenodd;"
points="62716,42293
62913,42293
62913,42529
62716,42529
62716,42293
" /> 
<polyline style="fill-rule:evenodd;"
points="65748,43814
65748,43952
65433,43952
65433,43814
65748,43814
" /> 
<polyline style="fill-rule:evenodd;"
points="65748,43559
65748,43696
65433,43696
65433,43559
65748,43559
" /> 
<polyline style="fill-rule:evenodd;"
points="65748,43303
65748,43440
65433,43440
65433,43303
65748,43303
" /> 
<polyline style="fill-rule:evenodd;"
points="65748,43047
65748,43185
65433,43185
65433,43047
65748,43047
" /> 
<polyline style="fill-rule:evenodd;"
points="65118,42555
65256,42555
65256,42870
65118,42870
65118,42555
" /> 
<polyline style="fill-rule:evenodd;"
points="64862,42555
65000,42555
65000,42870
64862,42870
64862,42555
" /> 
<polyline style="fill-rule:evenodd;"
points="64607,42555
64744,42555
64744,42870
64607,42870
64607,42555
" /> 
<polyline style="fill-rule:evenodd;"
points="64351,42555
64488,42555
64488,42870
64351,42870
64351,42555
" /> 
<polyline style="fill-rule:evenodd;"
points="64174,43047
64174,43185
63859,43185
63859,43047
64174,43047
" /> 
<polyline style="fill-rule:evenodd;"
points="64174,43303
64174,43440
63859,43440
63859,43303
64174,43303
" /> 
<polyline style="fill-rule:evenodd;"
points="64174,43559
64174,43696
63859,43696
63859,43559
64174,43559
" /> 
<polyline style="fill-rule:evenodd;"
points="64174,43814
64174,43952
63859,43952
63859,43814
64174,43814
" /> 
<polyline style="fill-rule:evenodd;"
points="64351,44129
64488,44129
64488,44444
64351,44444
64351,44129
" /> 
<polyline style="fill-rule:evenodd;"
points="64607,44129
64744,44129
64744,44444
64607,44444
64607,44129
" /> 
<polyline style="fill-rule:evenodd;"
points="64862,44129
65000,44129
65000,44444
64862,44444
64862,44129
" /> 
<polyline style="fill-rule:evenodd;"
points="65118,44129
65256,44129
65256,44444
65118,44444
65118,44129
" /> 
<polyline style="fill-rule:evenodd;"
points="64705,43106
64705,43401
64410,43401
64410,43106
64705,43106
" /> 
<polyline style="fill-rule:evenodd;"
points="64705,43598
64705,43893
64410,43893
64410,43598
64705,43598
" /> 
<polyline style="fill-rule:evenodd;"
points="65197,43106
65197,43401
64902,43401
64902,43106
65197,43106
" /> 
<polyline style="fill-rule:evenodd;"
points="65197,43598
65197,43893
64902,43893
64902,43598
65197,43598
" /> 
<polyline style="fill-rule:evenodd;"
points="58448,38957
58448,38643
58762,38643
58762,38957
58448,38957
" /> 
<polyline style="fill-rule:evenodd;"
points="59038,38957
59038,38643
59352,38643
59352,38957
59038,38957
" /> 
<polyline style="fill-rule:evenodd;"
points="59977,37974
59977,37738
60173,37738
60173,37974
59977,37974
" /> 
<polyline style="fill-rule:evenodd;"
points="59585,37974
59585,37738
59781,37738
59781,37974
59585,37974
" /> 
<polyline style="fill-rule:evenodd;"
points="67139,43532
67139,43768
66943,43768
66943,43532
67139,43532
" /> 
<polyline style="fill-rule:evenodd;"
points="66747,43532
66747,43768
66551,43768
66551,43532
66747,43532
" /> 
<polyline style="fill-rule:evenodd;"
points="64742,40952
64742,41188
64546,41188
64546,40952
64742,40952
" /> 
<polyline style="fill-rule:evenodd;"
points="65134,40952
65134,41188
64938,41188
64938,40952
65134,40952
" /> 
<polyline style="fill-rule:evenodd;"
points="67142,43163
67142,43399
66946,43399
66946,43163
67142,43163
" /> 
<polyline style="fill-rule:evenodd;"
points="66750,43163
66750,43399
66554,43399
66554,43163
66750,43163
" /> 
<polyline style="fill-rule:evenodd;"
points="66512,44733
66512,45166
66119,45166
66119,44733
66512,44733
" /> 
<polyline style="fill-rule:evenodd;"
points="67180,44733
67180,45166
66787,45166
66787,44733
67180,44733
" /> 
<polyline style="fill-rule:evenodd;"
points="53293,43757
52860,43757
52860,43364
53293,43364
53293,43757
" /> 
<polyline style="fill-rule:evenodd;"
points="53293,44425
52860,44425
52860,44032
53293,44032
53293,44425
" /> 
<polyline style="fill-rule:evenodd;"
points="52848,39967
53281,39967
53281,40360
52848,40360
52848,39967
" /> 
<polyline style="fill-rule:evenodd;"
points="52848,40635
53281,40635
53281,41028
52848,41028
52848,40635
" /> 
<polyline style="fill-rule:evenodd;"
points="60652,43239
60652,43043
60848,43043
60848,43239
60652,43239
" /> 
<polyline style="fill-rule:evenodd;"
points="60908,43239
60908,43043
61026,43043
61026,43239
60908,43239
" /> 
<polyline style="fill-rule:evenodd;"
points="61104,43239
61104,43043
61222,43043
61222,43239
61104,43239
" /> 
<polyline style="fill-rule:evenodd;"
points="61282,43239
61282,43043
61478,43043
61478,43239
61282,43239
" /> 
<polyline style="fill-rule:evenodd;"
points="61282,42847
61282,42651
61478,42651
61478,42847
61282,42847
" /> 
<polyline style="fill-rule:evenodd;"
points="61104,42847
61104,42651
61222,42651
61222,42847
61104,42847
" /> 
<polyline style="fill-rule:evenodd;"
points="60908,42847
60908,42651
61026,42651
61026,42847
60908,42847
" /> 
<polyline style="fill-rule:evenodd;"
points="60652,42847
60652,42651
60848,42651
60848,42847
60652,42847
" /> 
<polyline style="fill-rule:evenodd;"
points="56421,41779
56225,41779
56225,41583
56421,41583
56421,41779
" /> 
<polyline style="fill-rule:evenodd;"
points="56421,41523
56225,41523
56225,41405
56421,41405
56421,41523
" /> 
<polyline style="fill-rule:evenodd;"
points="56421,41327
56225,41327
56225,41209
56421,41209
56421,41327
" /> 
<polyline style="fill-rule:evenodd;"
points="56421,41149
56225,41149
56225,40953
56421,40953
56421,41149
" /> 
<polyline style="fill-rule:evenodd;"
points="56813,41149
56617,41149
56617,40953
56813,40953
56813,41149
" /> 
<polyline style="fill-rule:evenodd;"
points="56813,41327
56617,41327
56617,41209
56813,41209
56813,41327
" /> 
<polyline style="fill-rule:evenodd;"
points="56813,41523
56617,41523
56617,41405
56813,41405
56813,41523
" /> 
<polyline style="fill-rule:evenodd;"
points="56813,41779
56617,41779
56617,41583
56813,41583
56813,41779
" /> 
<polyline style="fill-rule:evenodd;"
points="54886,42904
54886,42708
55082,42708
55082,42904
54886,42904
" /> 
<polyline style="fill-rule:evenodd;"
points="55142,42904
55142,42708
55260,42708
55260,42904
55142,42904
" /> 
<polyline style="fill-rule:evenodd;"
points="55338,42904
55338,42708
55456,42708
55456,42904
55338,42904
" /> 
<polyline style="fill-rule:evenodd;"
points="55516,42904
55516,42708
55712,42708
55712,42904
55516,42904
" /> 
<polyline style="fill-rule:evenodd;"
points="55516,42512
55516,42316
55712,42316
55712,42512
55516,42512
" /> 
<polyline style="fill-rule:evenodd;"
points="55338,42512
55338,42316
55456,42316
55456,42512
55338,42512
" /> 
<polyline style="fill-rule:evenodd;"
points="55142,42512
55142,42316
55260,42316
55260,42512
55142,42512
" /> 
<polyline style="fill-rule:evenodd;"
points="54886,42512
54886,42316
55082,42316
55082,42512
54886,42512
" /> 
<polyline style="fill-rule:evenodd;"
points="55031,39798
55031,39994
54835,39994
54835,39798
55031,39798
" /> 
<polyline style="fill-rule:evenodd;"
points="54775,39798
54775,39994
54657,39994
54657,39798
54775,39798
" /> 
<polyline style="fill-rule:evenodd;"
points="54579,39798
54579,39994
54461,39994
54461,39798
54579,39798
" /> 
<polyline style="fill-rule:evenodd;"
points="54401,39798
54401,39994
54205,39994
54205,39798
54401,39798
" /> 
<polyline style="fill-rule:evenodd;"
points="54401,39406
54401,39602
54205,39602
54205,39406
54401,39406
" /> 
<polyline style="fill-rule:evenodd;"
points="54579,39406
54579,39602
54461,39602
54461,39406
54579,39406
" /> 
<polyline style="fill-rule:evenodd;"
points="54775,39406
54775,39602
54657,39602
54657,39406
54775,39406
" /> 
<polyline style="fill-rule:evenodd;"
points="55031,39406
55031,39602
54835,39602
54835,39406
55031,39406
" /> 
<polyline style="fill-rule:evenodd;"
points="55979,39406
55979,39602
55783,39602
55783,39406
55979,39406
" /> 
<polyline style="fill-rule:evenodd;"
points="55723,39406
55723,39602
55605,39602
55605,39406
55723,39406
" /> 
<polyline style="fill-rule:evenodd;"
points="55527,39406
55527,39602
55409,39602
55409,39406
55527,39406
" /> 
<polyline style="fill-rule:evenodd;"
points="55349,39406
55349,39602
55153,39602
55153,39406
55349,39406
" /> 
<polyline style="fill-rule:evenodd;"
points="55349,39798
55349,39994
55153,39994
55153,39798
55349,39798
" /> 
<polyline style="fill-rule:evenodd;"
points="55527,39798
55527,39994
55409,39994
55409,39798
55527,39798
" /> 
<polyline style="fill-rule:evenodd;"
points="55723,39798
55723,39994
55605,39994
55605,39798
55723,39798
" /> 
<polyline style="fill-rule:evenodd;"
points="55979,39798
55979,39994
55783,39994
55783,39798
55979,39798
" /> 
<polyline style="fill-rule:evenodd;"
points="53839,40416
53642,40416
53642,40180
53839,40180
53839,40416
" /> 
<polyline style="fill-rule:evenodd;"
points="53839,39983
53642,39983
53642,39747
53839,39747
53839,39983
" /> 
<polyline style="fill-rule:evenodd;"
points="55527,40242
55645,40242
55645,40576
55527,40576
55527,40242
" /> 
<polyline style="fill-rule:evenodd;"
points="55330,40242
55448,40242
55448,40576
55330,40576
55330,40242
" /> 
<polyline style="fill-rule:evenodd;"
points="55133,40242
55251,40242
55251,40576
55133,40576
55133,40242
" /> 
<polyline style="fill-rule:evenodd;"
points="54937,40242
55055,40242
55055,40576
54937,40576
54937,40242
" /> 
<polyline style="fill-rule:evenodd;"
points="54740,40242
54858,40242
54858,40576
54740,40576
54740,40242
" /> 
<polyline style="fill-rule:evenodd;"
points="54543,40242
54661,40242
54661,40576
54543,40576
54543,40242
" /> 
<polyline style="fill-rule:evenodd;"
points="54159,40744
54159,40625
54494,40625
54494,40744
54159,40744
" /> 
<polyline style="fill-rule:evenodd;"
points="54159,40940
54159,40822
54494,40822
54494,40940
54159,40940
" /> 
<polyline style="fill-rule:evenodd;"
points="54159,41137
54159,41019
54494,41019
54494,41137
54159,41137
" /> 
<polyline style="fill-rule:evenodd;"
points="54159,41334
54159,41216
54494,41216
54494,41334
54159,41334
" /> 
<polyline style="fill-rule:evenodd;"
points="54159,41531
54159,41413
54494,41413
54494,41531
54159,41531
" /> 
<polyline style="fill-rule:evenodd;"
points="54159,41728
54159,41610
54494,41610
54494,41728
54159,41728
" /> 
<polyline style="fill-rule:evenodd;"
points="54543,41777
54661,41777
54661,42112
54543,42112
54543,41777
" /> 
<polyline style="fill-rule:evenodd;"
points="54740,41777
54858,41777
54858,42112
54740,42112
54740,41777
" /> 
<polyline style="fill-rule:evenodd;"
points="54937,41777
55055,41777
55055,42112
54937,42112
54937,41777
" /> 
<polyline style="fill-rule:evenodd;"
points="55133,41777
55251,41777
55251,42112
55133,42112
55133,41777
" /> 
<polyline style="fill-rule:evenodd;"
points="55330,41777
55448,41777
55448,42112
55330,42112
55330,41777
" /> 
<polyline style="fill-rule:evenodd;"
points="55527,41777
55645,41777
55645,42112
55527,42112
55527,41777
" /> 
<polyline style="fill-rule:evenodd;"
points="55694,41728
55694,41610
56029,41610
56029,41728
55694,41728
" /> 
<polyline style="fill-rule:evenodd;"
points="55694,41531
55694,41413
56029,41413
56029,41531
55694,41531
" /> 
<polyline style="fill-rule:evenodd;"
points="55694,41334
55694,41216
56029,41216
56029,41334
55694,41334
" /> 
<polyline style="fill-rule:evenodd;"
points="55694,41137
55694,41019
56029,41019
56029,41137
55694,41137
" /> 
<polyline style="fill-rule:evenodd;"
points="55694,40940
55694,40822
56029,40822
56029,40940
55694,40940
" /> 
<polyline style="fill-rule:evenodd;"
points="55694,40744
55694,40625
56029,40625
56029,40744
55694,40744
" /> 
<polyline style="fill-rule:evenodd;"
points="54685,41279
54992,41279
54992,41586
54685,41586
54685,41279
" /> 
<polyline style="fill-rule:evenodd;"
points="55196,41279
55503,41279
55503,41586
55196,41586
55196,41279
" /> 
<polyline style="fill-rule:evenodd;"
points="54685,40767
54992,40767
54992,41074
54685,41074
54685,40767
" /> 
<polyline style="fill-rule:evenodd;"
points="55196,40767
55503,40767
55503,41074
55196,41074
55196,40767
" /> 
<polyline style="fill-rule:evenodd;"
points="59557,42901
59243,42901
59243,42587
59557,42587
59557,42901
" /> 
<polyline style="fill-rule:evenodd;"
points="59557,43491
59243,43491
59243,43177
59557,43177
59557,43491
" /> 
<polyline style="fill-rule:evenodd;"
points="58448,44057
58448,43743
58762,43743
58762,44057
58448,44057
" /> 
<polyline style="fill-rule:evenodd;"
points="59038,44057
59038,43743
59352,43743
59352,44057
59038,44057
" /> 
<polyline style="fill-rule:evenodd;"
points="58457,42897
58143,42897
58143,42583
58457,42583
58457,42897
" /> 
<polyline style="fill-rule:evenodd;"
points="58457,43487
58143,43487
58143,43173
58457,43173
58457,43487
" /> 
<polyline style="fill-rule:evenodd;"
points="57243,42334
57243,42020
57557,42020
57557,42334
57243,42334
" /> 
<polyline style="fill-rule:evenodd;"
points="57833,42334
57833,42020
58147,42020
58147,42334
57833,42334
" /> 
<polyline style="fill-rule:evenodd;"
points="59033,42342
59033,42028
59347,42028
59347,42342
59033,42342
" /> 
<polyline style="fill-rule:evenodd;"
points="58443,42342
58443,42028
58757,42028
58757,42342
58443,42342
" /> 
<polyline style="fill-rule:evenodd;"
points="57248,40657
57248,40343
57562,40343
57562,40657
57248,40657
" /> 
<polyline style="fill-rule:evenodd;"
points="57838,40657
57838,40343
58152,40343
58152,40657
57838,40657
" /> 
<polyline style="fill-rule:evenodd;"
points="59038,40657
59038,40343
59352,40343
59352,40657
59038,40657
" /> 
<polyline style="fill-rule:evenodd;"
points="58448,40657
58448,40343
58762,40343
58762,40657
58448,40657
" /> 
<polyline style="fill-rule:evenodd;"
points="57357,40102
57043,40102
57043,39788
57357,39788
57357,40102
" /> 
<polyline style="fill-rule:evenodd;"
points="57357,39512
57043,39512
57043,39198
57357,39198
57357,39512
" /> 
<polyline style="fill-rule:evenodd;"
points="58457,39515
58143,39515
58143,39201
58457,39201
58457,39515
" /> 
<polyline style="fill-rule:evenodd;"
points="58457,40105
58143,40105
58143,39791
58457,39791
58457,40105
" /> 
<polyline style="fill-rule:evenodd;"
points="59557,40093
59243,40093
59243,39779
59557,39779
59557,40093
" /> 
<polyline style="fill-rule:evenodd;"
points="59557,39503
59243,39503
59243,39189
59557,39189
59557,39503
" /> 
<polyline style="fill-rule:evenodd;"
points="57838,38957
57838,38643
58152,38643
58152,38957
57838,38957
" /> 
<polyline style="fill-rule:evenodd;"
points="57248,38957
57248,38643
57562,38643
57562,38957
57248,38957
" /> 
<polyline style="fill-rule:evenodd;"
points="57357,43492
57043,43492
57043,43178
57357,43178
57357,43492
" /> 
<polyline style="fill-rule:evenodd;"
points="57357,42902
57043,42902
57043,42588
57357,42588
57357,42902
" /> 
<polyline style="fill-rule:evenodd;"
points="57838,44057
57838,43743
58152,43743
58152,44057
57838,44057
" /> 
<polyline style="fill-rule:evenodd;"
points="57248,44057
57248,43743
57562,43743
57562,44057
57248,44057
" /> 
<polyline style="fill-rule:evenodd;"
points="65134,41472
65134,41708
64938,41708
64938,41472
65134,41472
" /> 
<polyline style="fill-rule:evenodd;"
points="64742,41472
64742,41708
64546,41708
64546,41472
64742,41472
" /> 
<polyline style="fill-rule:evenodd;"
points="52956,38647
53192,38647
53192,38843
52956,38843
52956,38647
" /> 
<polyline style="fill-rule:evenodd;"
points="52956,38255
53192,38255
53192,38451
52956,38451
52956,38255
" /> 
<polyline style="fill-rule:evenodd;"
points="60310,44744
60310,44980
60114,44980
60114,44744
60310,44744
" /> 
<polyline style="fill-rule:evenodd;"
points="59918,44744
59918,44980
59722,44980
59722,44744
59918,44744
" /> 
<polyline style="fill-rule:evenodd;"
points="52956,37897
53192,37897
53192,38093
52956,38093
52956,37897
" /> 
<polyline style="fill-rule:evenodd;"
points="52956,37505
53192,37505
53192,37701
52956,37701
52956,37505
" /> 
<polyline style="fill-rule:evenodd;"
points="62807,44736
62807,44972
62611,44972
62611,44736
62807,44736
" /> 
<polyline style="fill-rule:evenodd;"
points="62415,44736
62415,44972
62219,44972
62219,44736
62415,44736
" /> 
<polyline style="fill-rule:evenodd;"
points="60682,44736
60682,44972
60486,44972
60486,44736
60682,44736
" /> 
<polyline style="fill-rule:evenodd;"
points="61074,44736
61074,44972
60878,44972
60878,44736
61074,44736
" /> 
<polyline style="fill-rule:evenodd;"
points="62053,44736
62053,44972
61857,44972
61857,44736
62053,44736
" /> 
<polyline style="fill-rule:evenodd;"
points="61661,44736
61661,44972
61465,44972
61465,44736
61661,44736
" /> 
<polyline style="fill-rule:evenodd;"
points="66526,41760
66526,42193
66133,42193
66133,41760
66526,41760
" /> 
<polyline style="fill-rule:evenodd;"
points="67194,41760
67194,42193
66801,42193
66801,41760
67194,41760
" /> 
<polyline style="fill-rule:evenodd;"
points="69090,45286
68342,45286
68342,44578
69090,44578
69090,45286
" /> 
<polyline style="fill-rule:evenodd;"
points="69090,44282
68342,44282
68342,43534
69090,43534
69090,44282
" /> 
<polyline style="fill-rule:evenodd;"
points="69090,43338
68342,43338
68342,42590
69090,42590
69090,43338
" /> 
<polyline style="fill-rule:evenodd;"
points="69090,42294
68342,42294
68342,41586
69090,41586
69090,42294
" /> 
<polyline style="fill-rule:evenodd;"
points="68028,42629
67399,42629
67399,41803
68028,41803
68028,42629
" /> 
<polyline style="fill-rule:evenodd;"
points="68028,45069
67399,45069
67399,44243
68028,44243
68028,45069
" /> 
<polyline style="fill-rule:evenodd;"
points="67929,43515
67398,43515
67398,43358
67929,43358
67929,43515
" /> 
<polyline style="fill-rule:evenodd;"
points="67929,43770
67398,43770
67398,43613
67929,43613
67929,43770
" /> 
<polyline style="fill-rule:evenodd;"
points="67929,43004
67398,43004
67398,42847
67929,42847
67929,43004
" /> 
<polyline style="fill-rule:evenodd;"
points="67929,43260
67398,43260
67398,43103
67929,43103
67929,43260
" /> 
<polyline style="fill-rule:evenodd;"
points="67929,44026
67398,44026
67398,43869
67929,43869
67929,44026
" /> 
<polyline style="fill-rule:evenodd;"
points="60802,39802
60448,39802
60448,39330
60802,39330
60802,39802
" /> 
<polyline style="fill-rule:evenodd;"
points="60802,38228
60448,38228
60448,37756
60802,37756
60802,38228
" /> 
<polyline style="fill-rule:evenodd;"
points="61392,39802
61038,39802
61038,39330
61392,39330
61392,39802
" /> 
<polyline style="fill-rule:evenodd;"
points="61392,38228
61038,38228
61038,37756
61392,37756
61392,38228
" /> 
<polyline style="fill-rule:evenodd;"
points="53795,44351
53795,44147
53913,44147
53913,44351
53795,44351
" /> 
<polyline style="fill-rule:evenodd;"
points="53991,44343
53991,44151
54109,44151
54109,44343
53991,44343
" /> 
<polyline style="fill-rule:evenodd;"
points="54187,44343
54187,44151
54305,44151
54305,44343
54187,44343
" /> 
<polyline style="fill-rule:evenodd;"
points="54187,44049
54187,43857
54305,43857
54305,44049
54187,44049
" /> 
<polyline style="fill-rule:evenodd;"
points="53991,44049
53991,43857
54109,43857
54109,44049
53991,44049
" /> 
<polyline style="fill-rule:evenodd;"
points="53795,44049
53795,43857
53913,43857
53913,44049
53795,44049
" /> 
<polyline style="fill-rule:evenodd;"
points="53881,38781
53566,38781
53566,38427
53881,38427
53881,38781
" /> 
<polyline style="fill-rule:evenodd;"
points="54629,38781
54314,38781
54314,38427
54629,38427
54629,38781
" /> 
<polyline style="fill-rule:evenodd;"
points="54255,37994
53940,37994
53940,37640
54255,37640
54255,37994
" /> 
<polyline style="fill-rule:evenodd;"
points="61115,43778
60800,43778
60800,43424
61115,43424
61115,43778
" /> 
<polyline style="fill-rule:evenodd;"
points="61489,44566
61174,44566
61174,44211
61489,44211
61489,44566
" /> 
<polyline style="fill-rule:evenodd;"
points="60741,44566
60426,44566
60426,44211
60741,44211
60741,44566
" /> 
<polyline style="fill-rule:evenodd;"
points="62135,44570
61820,44570
61820,44216
62135,44216
62135,44570
" /> 
<polyline style="fill-rule:evenodd;"
points="62883,44570
62568,44570
62568,44216
62883,44216
62883,44570
" /> 
<polyline style="fill-rule:evenodd;"
points="62509,43783
62194,43783
62194,43429
62509,43429
62509,43783
" /> 
</g> 
</svg>
