<?xml version="1.0" standalone="no"?>
 <!DOCTYPE svg PUBLIC "-//W3C//DTD SVG 1.1//EN" 
 "http://www.w3.org/Graphics/SVG/1.1/DTD/svg11.dtd"> 
<svg xmlns="http://www.w3.org/2000/svg" version="1.1" 
    width="29.7002cm" height="21.0007cm" viewBox="0 0 116930 82680 ">
<title>SVG Picture created as baconbits-B.SilkS.svg date 2018/02/15 13:51:29 </title>
  <desc>Picture generated by PCBNEW </desc>
<g style="fill:#000000; fill-opacity:1;stroke:#000000; stroke-opacity:1;
stroke-linecap:round; stroke-linejoin:round; "
 transform="translate(0 0) scale(1 1)">
</g>
<g style="fill:#000000; fill-opacity:0.0; 
stroke:#000000; stroke-width:-0.000393701; stroke-opacity:1; 
stroke-linecap:round; stroke-linejoin:round;">
</g>
<g style="fill:#000000; fill-opacity:0.0; 
stroke:#000000; stroke-width:98.4252; stroke-opacity:1; 
stroke-linecap:round; stroke-linejoin:round;">
<path d="M67848 38670
L67586 38670
" />
<path d="M67623 38670
L67604 38688
L67586 38726
L67586 38782
L67604 38820
L67642 38838
L67848 38838
" />
<path d="M67642 38838
L67604 38857
L67586 38895
L67586 38951
L67604 38988
L67642 39007
L67848 39007
" />
<path d="M67886 39101
L67886 39401
" />
<path d="M67586 39457
L67848 39532
L67661 39607
L67848 39682
L67586 39757
" />
<path d="M68537 38266
L68143 38266
" />
<path d="M68387 38304
L68537 38416
" />
<path d="M68275 38416
L68425 38266
" />
<path d="M68537 38754
L68331 38754
L68293 38735
L68275 38698
L68275 38623
L68293 38585
" />
<path d="M68518 38754
L68537 38716
L68537 38623
L68518 38585
L68481 38566
L68443 38566
L68406 38585
L68387 38623
L68387 38716
L68368 38754
" />
<path d="M68143 39110
L68143 39035
L68162 38998
L68181 38979
L68237 38941
L68312 38923
L68462 38923
L68500 38941
L68518 38960
L68537 38998
L68537 39073
L68518 39110
L68500 39129
L68462 39148
L68368 39148
L68331 39129
L68312 39110
L68293 39073
L68293 38998
L68312 38960
L68331 38941
L68368 38923
" />
<path d="M68518 39298
L68537 39335
L68537 39410
L68518 39448
L68481 39466
L68462 39466
L68425 39448
L68406 39410
L68406 39354
L68387 39316
L68350 39298
L68331 39298
L68293 39316
L68275 39354
L68275 39410
L68293 39448
" />
<path d="M68537 39691
L68518 39654
L68500 39635
L68462 39616
L68350 39616
L68312 39635
L68293 39654
L68275 39691
L68275 39748
L68293 39785
L68312 39804
L68350 39823
L68462 39823
L68500 39804
L68518 39785
L68537 39748
L68537 39691
" />
<path d="M68537 39954
L68275 40160
" />
<path d="M68275 39954
L68537 40160
" />
<path d="M57147 39957
L57166 40013
L57185 40032
L57222 40051
L57279 40051
L57316 40032
L57335 40013
L57354 39976
L57354 39826
L56960 39826
L56960 39957
L56979 39995
L56997 40013
L57035 40032
L57072 40032
L57110 40013
L57129 39995
L57147 39957
L57147 39826
" />
<path d="M57354 40388
L57147 40388
L57110 40370
L57091 40332
L57091 40257
L57110 40220
" />
<path d="M57335 40388
L57354 40351
L57354 40257
L57335 40220
L57297 40201
L57260 40201
L57222 40220
L57204 40257
L57204 40351
L57185 40388
" />
<path d="M57335 40745
L57354 40707
L57354 40632
L57335 40595
L57316 40576
L57279 40557
L57166 40557
L57129 40576
L57110 40595
L57091 40632
L57091 40707
L57110 40745
" />
<path d="M57354 40970
L57335 40932
L57316 40913
L57279 40895
L57166 40895
L57129 40913
L57110 40932
L57091 40970
L57091 41026
L57110 41063
L57129 41082
L57166 41101
L57279 41101
L57316 41082
L57335 41063
L57354 41026
L57354 40970
" />
<path d="M57091 41269
L57354 41269
" />
<path d="M57129 41269
L57110 41288
L57091 41326
L57091 41382
L57110 41419
L57147 41438
L57354 41438
" />
<path d="M57147 41757
L57166 41813
L57185 41832
L57222 41851
L57279 41851
L57316 41832
L57335 41813
L57354 41776
L57354 41626
L56960 41626
L56960 41757
L56979 41794
L56997 41813
L57035 41832
L57072 41832
L57110 41813
L57129 41794
L57147 41757
L57147 41626
" />
<path d="M57354 42019
L57091 42019
" />
<path d="M56960 42019
L56979 42001
L56997 42019
L56979 42038
L56960 42019
L56997 42019
" />
<path d="M57091 42151
L57091 42301
" />
<path d="M56960 42207
L57297 42207
L57335 42226
L57354 42263
L57354 42301
" />
<path d="M57335 42413
L57354 42451
L57354 42526
L57335 42563
L57297 42582
L57279 42582
L57241 42563
L57222 42526
L57222 42469
L57204 42432
L57166 42413
L57147 42413
L57110 42432
L57091 42469
L57091 42526
L57110 42563
" />
<path d="M58043 40566
L57855 40435
" />
<path d="M58043 40341
L57649 40341
L57649 40491
L57668 40529
L57686 40548
L57724 40566
L57780 40566
L57818 40548
L57836 40529
L57855 40491
L57855 40341
" />
<path d="M58024 40885
L58043 40848
L58043 40773
L58024 40735
L57986 40716
L57836 40716
L57799 40735
L57780 40773
L57780 40848
L57799 40885
L57836 40904
L57874 40904
L57911 40716
" />
<path d="M57780 41035
L58043 41129
L57780 41223
" />
<path d="M58005 41373
L58024 41391
L58043 41373
L58024 41354
L58005 41373
L58043 41373
" />
<path d="M58043 42066
L58043 41841
" />
<path d="M58043 41954
L57649 41954
L57705 41916
L57743 41879
L57761 41841
" />
<path d="M58338 39376
L58338 39413
L58357 39451
L58375 39470
L58413 39488
L58488 39507
L58582 39507
L58657 39488
L58694 39470
L58713 39451
L58732 39413
L58732 39376
L58713 39338
L58694 39320
L58657 39301
L58582 39282
L58488 39282
L58413 39301
L58375 39320
L58357 39338
L58338 39376
" />
<path d="M58375 39657
L58357 39676
L58338 39713
L58338 39807
L58357 39845
L58375 39863
L58413 39882
L58450 39882
L58507 39863
L58732 39638
L58732 39882
" />
<path d="M58582 40051
L58582 40351
" />
<path d="M58732 40745
L58732 40520
" />
<path d="M58732 40632
L58338 40632
L58394 40595
L58432 40557
L58450 40520
" />
<path d="M58469 41082
L58732 41082
" />
<path d="M58319 40988
L58600 40895
L58600 41138
" />
<path d="M58582 41288
L58582 41588
" />
<path d="M58375 41757
L58357 41776
L58338 41813
L58338 41907
L58357 41944
L58375 41963
L58413 41982
L58450 41982
L58507 41963
L58732 41738
L58732 41982
" />
<path d="M58338 42226
L58338 42263
L58357 42301
L58375 42319
L58413 42338
L58488 42357
L58582 42357
L58657 42338
L58694 42319
L58713 42301
L58732 42263
L58732 42226
L58713 42188
L58694 42169
L58657 42151
L58582 42132
L58488 42132
L58413 42151
L58375 42169
L58357 42188
L58338 42226
" />
<path d="M58732 42732
L58732 42507
" />
<path d="M58732 42619
L58338 42619
L58394 42582
L58432 42544
L58450 42507
" />
<path d="M58507 42957
L58488 42919
L58469 42901
L58432 42882
L58413 42882
L58375 42901
L58357 42919
L58338 42957
L58338 43032
L58357 43069
L58375 43088
L58413 43107
L58432 43107
L58469 43088
L58488 43069
L58507 43032
L58507 42957
L58525 42919
L58544 42901
L58582 42882
L58657 42882
L58694 42901
L58713 42919
L58732 42957
L58732 43032
L58713 43069
L58694 43088
L58657 43107
L58582 43107
L58544 43088
L58525 43069
L58507 43032
" />
</g> 
</svg>
